<?xml version="1.0" encoding="UTF-8"?>
<!DOCTYPE svg PUBLIC "-//W3C//DTD SVG 1.1//EN" "http://www.w3.org/Graphics/SVG/1.1/DTD/svg11.dtd">
<svg xmlns="http://www.w3.org/2000/svg" version="1.1" width="1200px" height="240px" style="shape-rendering:geometricPrecision; text-rendering:geometricPrecision; image-rendering:optimizeQuality; fill-rule:evenodd; clip-rule:evenodd" xmlns:xlink="http://www.w3.org/1999/xlink">
<g><path style="opacity:1" fill="#000000" d="M -0.5,-0.5 C 399.5,-0.5 799.5,-0.5 1199.5,-0.5C 1199.5,79.5 1199.5,159.5 1199.5,239.5C 799.5,239.5 399.5,239.5 -0.5,239.5C -0.5,159.5 -0.5,79.5 -0.5,-0.5 Z"/></g>
<g><path style="opacity:1" fill="#fefffe" d="M 119.5,19.5 C 119.5,32.8333 119.5,46.1667 119.5,59.5C 126.167,59.5 132.833,59.5 139.5,59.5C 139.5,46.1667 139.5,32.8333 139.5,19.5C 179.5,19.5 219.5,19.5 259.5,19.5C 259.5,66.1667 259.5,112.833 259.5,159.5C 266.167,159.5 272.833,159.5 279.5,159.5C 279.5,146.167 279.5,132.833 279.5,119.5C 292.833,119.5 306.167,119.5 319.5,119.5C 319.5,112.833 319.5,106.167 319.5,99.5C 306.167,99.5 292.833,99.5 279.5,99.5C 279.5,72.8333 279.5,46.1667 279.5,19.5C 419.5,19.5 559.5,19.5 699.5,19.5C 699.5,39.5 699.5,59.5 699.5,79.5C 679.5,79.5 659.5,79.5 639.5,79.5C 639.5,106.167 639.5,132.833 639.5,159.5C 666.167,159.5 692.833,159.5 719.5,159.5C 719.5,112.833 719.5,66.1667 719.5,19.5C 786.167,19.5 852.833,19.5 919.5,19.5C 919.5,39.5 919.5,59.5 919.5,79.5C 912.833,79.5 906.167,79.5 899.5,79.5C 899.5,86.1667 899.5,92.8333 899.5,99.5C 906.167,99.5 912.833,99.5 919.5,99.5C 919.5,119.5 919.5,139.5 919.5,159.5C 932.833,159.5 946.167,159.5 959.5,159.5C 959.5,152.833 959.5,146.167 959.5,139.5C 952.833,139.5 946.167,139.5 939.5,139.5C 939.5,126.167 939.5,112.833 939.5,99.5C 952.833,99.5 966.167,99.5 979.5,99.5C 979.5,92.8333 979.5,86.1667 979.5,79.5C 966.167,79.5 952.833,79.5 939.5,79.5C 939.5,59.5 939.5,39.5 939.5,19.5C 1019.5,19.5 1099.5,19.5 1179.5,19.5C 1179.5,39.5 1179.5,59.5 1179.5,79.5C 1152.83,79.5 1126.17,79.5 1099.5,79.5C 1099.5,126.167 1099.5,172.833 1099.5,219.5C 1006.17,219.5 912.833,219.5 819.5,219.5C 819.5,172.833 819.5,126.167 819.5,79.5C 812.833,79.5 806.167,79.5 799.5,79.5C 799.5,99.5 799.5,119.5 799.5,139.5C 786.167,139.5 772.833,139.5 759.5,139.5C 759.5,119.5 759.5,99.5 759.5,79.5C 752.833,79.5 746.167,79.5 739.5,79.5C 739.5,106.167 739.5,132.833 739.5,159.5C 759.5,159.5 779.5,159.5 799.5,159.5C 799.5,172.833 799.5,186.167 799.5,199.5C 779.5,199.5 759.5,199.5 739.5,199.5C 739.5,206.167 739.5,212.833 739.5,219.5C 506.167,219.5 272.833,219.5 39.5,219.5C 39.5,199.5 39.5,179.5 39.5,159.5C 59.5,159.5 79.5,159.5 99.5,159.5C 99.5,132.833 99.5,106.167 99.5,79.5C 72.8333,79.5 46.1667,79.5 19.5,79.5C 19.5,59.5 19.5,39.5 19.5,19.5C 52.8333,19.5 86.1667,19.5 119.5,19.5 Z"/></g>
<g><path style="opacity:1" fill="#fe9998" d="M 119.5,19.5 C 126.167,19.5 132.833,19.5 139.5,19.5C 139.5,32.8333 139.5,46.1667 139.5,59.5C 132.833,59.5 126.167,59.5 119.5,59.5C 119.5,46.1667 119.5,32.8333 119.5,19.5 Z"/></g>
<g><path style="opacity:1" fill="#fe9998" d="M 259.5,19.5 C 266.167,19.5 272.833,19.5 279.5,19.5C 279.5,46.1667 279.5,72.8333 279.5,99.5C 292.833,99.5 306.167,99.5 319.5,99.5C 319.5,106.167 319.5,112.833 319.5,119.5C 306.167,119.5 292.833,119.5 279.5,119.5C 279.5,132.833 279.5,146.167 279.5,159.5C 272.833,159.5 266.167,159.5 259.5,159.5C 259.5,112.833 259.5,66.1667 259.5,19.5 Z"/></g>
<g><path style="opacity:1" fill="#fe9998" d="M 699.5,19.5 C 706.167,19.5 712.833,19.5 719.5,19.5C 719.5,66.1667 719.5,112.833 719.5,159.5C 692.833,159.5 666.167,159.5 639.5,159.5C 639.5,132.833 639.5,106.167 639.5,79.5C 659.5,79.5 679.5,79.5 699.5,79.5C 699.5,59.5 699.5,39.5 699.5,19.5 Z"/></g>
<g><path style="opacity:1" fill="#fe9998" d="M 919.5,19.5 C 926.167,19.5 932.833,19.5 939.5,19.5C 939.5,39.5 939.5,59.5 939.5,79.5C 952.833,79.5 966.167,79.5 979.5,79.5C 979.5,86.1667 979.5,92.8333 979.5,99.5C 966.167,99.5 952.833,99.5 939.5,99.5C 939.5,112.833 939.5,126.167 939.5,139.5C 946.167,139.5 952.833,139.5 959.5,139.5C 959.5,146.167 959.5,152.833 959.5,159.5C 946.167,159.5 932.833,159.5 919.5,159.5C 919.5,139.5 919.5,119.5 919.5,99.5C 912.833,99.5 906.167,99.5 899.5,99.5C 899.5,92.8333 899.5,86.1667 899.5,79.5C 906.167,79.5 912.833,79.5 919.5,79.5C 919.5,59.5 919.5,39.5 919.5,19.5 Z"/></g>
<g><path style="opacity:1" fill="#fe9998" d="M 319.5,99.5 C 319.5,86.1667 319.5,72.8333 319.5,59.5C 326.167,59.5 332.833,59.5 339.5,59.5C 339.5,72.8333 339.5,86.1667 339.5,99.5C 332.833,99.5 326.167,99.5 319.5,99.5 Z"/></g>
<g><path style="opacity:1" fill="#fe9998" d="M 19.5,79.5 C 46.1667,79.5 72.8333,79.5 99.5,79.5C 99.5,106.167 99.5,132.833 99.5,159.5C 79.5,159.5 59.5,159.5 39.5,159.5C 39.5,179.5 39.5,199.5 39.5,219.5C 32.8333,219.5 26.1667,219.5 19.5,219.5C 19.5,172.833 19.5,126.167 19.5,79.5 Z"/></g>
<g><path style="opacity:1" fill="#fe9998" d="M 119.5,79.5 C 126.167,79.5 132.833,79.5 139.5,79.5C 139.5,106.167 139.5,132.833 139.5,159.5C 132.833,159.5 126.167,159.5 119.5,159.5C 119.5,132.833 119.5,106.167 119.5,79.5 Z"/></g>
<g><path style="opacity:1" fill="#fe9998" d="M 159.5,79.5 C 186.167,79.5 212.833,79.5 239.5,79.5C 239.5,106.167 239.5,132.833 239.5,159.5C 232.833,159.5 226.167,159.5 219.5,159.5C 219.5,139.5 219.5,119.5 219.5,99.5C 206.167,99.5 192.833,99.5 179.5,99.5C 179.5,119.5 179.5,139.5 179.5,159.5C 172.833,159.5 166.167,159.5 159.5,159.5C 159.5,132.833 159.5,106.167 159.5,79.5 Z"/></g>
<g><path style="opacity:1" fill="#fe9998" d="M 359.5,79.5 C 379.5,79.5 399.5,79.5 419.5,79.5C 419.5,86.1667 419.5,92.8333 419.5,99.5C 406.167,99.5 392.833,99.5 379.5,99.5C 379.5,112.833 379.5,126.167 379.5,139.5C 392.833,139.5 406.167,139.5 419.5,139.5C 419.5,146.167 419.5,152.833 419.5,159.5C 399.5,159.5 379.5,159.5 359.5,159.5C 359.5,132.833 359.5,106.167 359.5,79.5 Z"/></g>
<g><path style="opacity:1" fill="#fe9998" d="M 499.5,139.5 C 499.5,146.167 499.5,152.833 499.5,159.5C 479.5,159.5 459.5,159.5 439.5,159.5C 439.5,132.833 439.5,106.167 439.5,79.5C 466.167,79.5 492.833,79.5 519.5,79.5C 519.5,99.5 519.5,119.5 519.5,139.5C 512.833,139.5 506.167,139.5 499.5,139.5 Z"/></g>
<g><path style="opacity:1" fill="#fe9998" d="M 539.5,79.5 C 566.167,79.5 592.833,79.5 619.5,79.5C 619.5,106.167 619.5,132.833 619.5,159.5C 612.833,159.5 606.167,159.5 599.5,159.5C 599.5,139.5 599.5,119.5 599.5,99.5C 586.167,99.5 572.833,99.5 559.5,99.5C 559.5,119.5 559.5,139.5 559.5,159.5C 552.833,159.5 546.167,159.5 539.5,159.5C 539.5,132.833 539.5,106.167 539.5,79.5 Z"/></g>
<g><path style="opacity:1" fill="#fe9998" d="M 819.5,219.5 C 792.833,219.5 766.167,219.5 739.5,219.5C 739.5,212.833 739.5,206.167 739.5,199.5C 759.5,199.5 779.5,199.5 799.5,199.5C 799.5,186.167 799.5,172.833 799.5,159.5C 779.5,159.5 759.5,159.5 739.5,159.5C 739.5,132.833 739.5,106.167 739.5,79.5C 746.167,79.5 752.833,79.5 759.5,79.5C 759.5,99.5 759.5,119.5 759.5,139.5C 772.833,139.5 786.167,139.5 799.5,139.5C 799.5,119.5 799.5,99.5 799.5,79.5C 806.167,79.5 812.833,79.5 819.5,79.5C 819.5,126.167 819.5,172.833 819.5,219.5 Z"/></g>
<g><path style="opacity:1" fill="#fe9998" d="M 999.5,79.5 C 1026.17,79.5 1052.83,79.5 1079.5,79.5C 1079.5,106.167 1079.5,132.833 1079.5,159.5C 1052.83,159.5 1026.17,159.5 999.5,159.5C 999.5,132.833 999.5,106.167 999.5,79.5 Z"/></g>
<g><path style="opacity:1" fill="#fe9998" d="M 1179.5,79.5 C 1179.5,106.167 1179.5,132.833 1179.5,159.5C 1159.5,159.5 1139.5,159.5 1119.5,159.5C 1119.5,179.5 1119.5,199.5 1119.5,219.5C 1112.83,219.5 1106.17,219.5 1099.5,219.5C 1099.5,172.833 1099.5,126.167 1099.5,79.5C 1126.17,79.5 1152.83,79.5 1179.5,79.5 Z"/></g>
<g><path style="opacity:1" fill="#fefffe" d="M 39.5,99.5 C 52.8333,99.5 66.1667,99.5 79.5,99.5C 79.5,112.833 79.5,126.167 79.5,139.5C 66.1667,139.5 52.8333,139.5 39.5,139.5C 39.5,126.167 39.5,112.833 39.5,99.5 Z"/></g>
<g><path style="opacity:1" fill="#fefffe" d="M 499.5,139.5 C 486.167,139.5 472.833,139.5 459.5,139.5C 459.5,126.167 459.5,112.833 459.5,99.5C 472.833,99.5 486.167,99.5 499.5,99.5C 499.5,112.833 499.5,126.167 499.5,139.5 Z"/></g>
<g><path style="opacity:1" fill="#fefffe" d="M 659.5,99.5 C 672.833,99.5 686.167,99.5 699.5,99.5C 699.5,112.833 699.5,126.167 699.5,139.5C 686.167,139.5 672.833,139.5 659.5,139.5C 659.5,126.167 659.5,112.833 659.5,99.5 Z"/></g>
<g><path style="opacity:1" fill="#fefffe" d="M 1019.5,99.5 C 1032.83,99.5 1046.17,99.5 1059.5,99.5C 1059.5,112.833 1059.5,126.167 1059.5,139.5C 1046.17,139.5 1032.83,139.5 1019.5,139.5C 1019.5,126.167 1019.5,112.833 1019.5,99.5 Z"/></g>
<g><path style="opacity:1" fill="#fefffe" d="M 1119.5,99.5 C 1132.83,99.5 1146.17,99.5 1159.5,99.5C 1159.5,112.833 1159.5,126.167 1159.5,139.5C 1146.17,139.5 1132.83,139.5 1119.5,139.5C 1119.5,126.167 1119.5,112.833 1119.5,99.5 Z"/></g>
<g><path style="opacity:1" fill="#fe9998" d="M 319.5,119.5 C 326.167,119.5 332.833,119.5 339.5,119.5C 339.5,132.833 339.5,146.167 339.5,159.5C 332.833,159.5 326.167,159.5 319.5,159.5C 319.5,146.167 319.5,132.833 319.5,119.5 Z"/></g>
<g><path style="opacity:1" fill="#fe9998" d="M 839.5,119.5 C 852.833,119.5 866.167,119.5 879.5,119.5C 879.5,132.833 879.5,146.167 879.5,159.5C 866.167,159.5 852.833,159.5 839.5,159.5C 839.5,146.167 839.5,132.833 839.5,119.5 Z"/></g>
<g><path style="opacity:1" fill="#fefffe" d="M 1179.5,159.5 C 1179.5,179.5 1179.5,199.5 1179.5,219.5C 1159.5,219.5 1139.5,219.5 1119.5,219.5C 1119.5,199.5 1119.5,179.5 1119.5,159.5C 1139.5,159.5 1159.5,159.5 1179.5,159.5 Z"/></g>
</svg>
