<?xml version="1.0" encoding="UTF-8"?>
<!DOCTYPE svg PUBLIC "-//W3C//DTD SVG 1.1//EN" "http://www.w3.org/Graphics/SVG/1.1/DTD/svg11.dtd">
<svg xmlns="http://www.w3.org/2000/svg" version="1.1" width="800px" height="200px" style="shape-rendering:geometricPrecision; text-rendering:geometricPrecision; image-rendering:optimizeQuality; fill-rule:evenodd; clip-rule:evenodd" xmlns:xlink="http://www.w3.org/1999/xlink">
<g><path style="opacity:1" fill="#ed7f8b" d="M 162.5,6.5 C 164.582,6.62435 166.082,7.62435 167,9.5C 166.557,21.4836 166.557,33.4836 167,45.5C 169.398,40.0269 171.065,34.3603 172,28.5C 177.141,26.1744 179.308,27.8411 178.5,33.5C 177.194,43.6114 173.528,52.7781 167.5,61C 171.477,60.5095 175.477,59.6762 179.5,58.5C 184.318,59.622 185.318,62.122 182.5,66C 176.601,67.7465 170.601,68.9132 164.5,69.5C 163.908,72.1272 163.575,74.7938 163.5,77.5C 170.224,78.7787 176.058,81.7787 181,86.5C 186.533,69.8351 189.867,52.8351 191,35.5C 201.724,29.2585 213.224,25.4252 225.5,24C 227.325,25.4659 227.825,27.2992 227,29.5C 217.539,32.9143 208.039,36.4143 198.5,40C 199.081,40.8926 199.415,41.8926 199.5,43C 198.419,46.4682 197.919,49.9682 198,53.5C 201.378,50.9774 205.045,48.9774 209,47.5C 209.452,44.1228 210.118,40.7895 211,37.5C 213.333,34.8333 215.667,34.8333 218,37.5C 218.687,39.5675 218.52,41.5675 217.5,43.5C 220.717,43.6582 224.05,43.8249 227.5,44C 228,44.5 228.5,45 229,45.5C 229.579,49.2027 229.412,52.8694 228.5,56.5C 231.518,56.3354 234.518,56.502 237.5,57C 238.576,58.7261 238.743,60.5594 238,62.5C 234.038,64.1886 229.872,65.1886 225.5,65.5C 226.308,69.5577 224.808,72.2244 221,73.5C 218.091,72.5715 216.925,70.5715 217.5,67.5C 216.178,67.33 215.011,67.6634 214,68.5C 213.023,70.74 212.523,73.0733 212.5,75.5C 217.675,74.5071 219.509,76.5071 218,81.5C 215.978,82.7865 213.811,83.7865 211.5,84.5C 209.871,92.4479 206.371,93.4479 201,87.5C 197.042,89.3352 193.042,90.0019 189,89.5C 185,101.5 181,113.5 177,125.5C 173.507,128.502 171.007,127.835 169.5,123.5C 172.634,113.432 175.967,103.432 179.5,93.5C 175.541,91.8531 171.875,89.6864 168.5,87C 166.564,86.187 164.564,85.687 162.5,85.5C 161.885,98.8813 160.718,112.215 159,125.5C 154.599,128.764 152.099,127.597 151.5,122C 153.049,109.864 153.882,97.6976 154,85.5C 151.888,89.2784 149.388,92.7784 146.5,96C 143.143,97.1412 141.143,95.9746 140.5,92.5C 143.152,87.2006 146.319,82.2006 150,77.5C 151.667,76.1667 153.333,76.1667 155,77.5C 155.494,75.8659 155.66,74.1992 155.5,72.5C 151.138,73.2854 146.804,74.2854 142.5,75.5C 138.165,73.9933 137.498,71.4933 140.5,68C 145.535,66.5992 150.535,65.0992 155.5,63.5C 157.39,60.0485 157.89,56.3818 157,52.5C 153.927,55.9594 150.76,55.7928 147.5,52C 143.705,48.2071 140.705,43.8738 138.5,39C 139.447,35.9277 141.447,34.9277 144.5,36C 148.299,40.8006 152.466,45.3006 157,49.5C 158.148,35.8646 159.148,22.1979 160,8.5C 160.995,7.93406 161.828,7.26739 162.5,6.5 Z M 218.5,52.5 C 219.497,52.4701 220.164,52.9701 220.5,54C 217.506,61.1975 215.839,61.0308 215.5,53.5C 216.791,53.7373 217.791,53.404 218.5,52.5 Z M 195.5,65.5 C 195.781,61.8121 196.281,58.1454 197,54.5C 198.648,59.875 201.815,60.875 206.5,57.5C 207.292,59.1949 206.958,60.8615 205.5,62.5C 202.273,63.9094 198.94,64.9094 195.5,65.5 Z M 191.5,81.5 C 191.357,79.7376 191.691,78.0709 192.5,76.5C 196.039,74.5641 199.706,72.8974 203.5,71.5C 204.854,74.0673 204.52,76.4006 202.5,78.5C 198.952,79.9702 195.285,80.9702 191.5,81.5 Z"/></g>
<g><path style="opacity:1" fill="#ed7f8b" d="M 207.5,6.5 C 211.251,6.4177 213.251,8.25103 213.5,12C 213.037,15.5399 212.37,19.0399 211.5,22.5C 207.011,24.5246 204.678,23.0246 204.5,18C 204.815,13.8827 205.815,10.0494 207.5,6.5 Z"/></g>
<g><path style="opacity:1" fill="#ed7f8b" d="M 276.5,6.5 C 278.604,6.2011 280.604,6.53443 282.5,7.5C 282.987,8.44606 283.32,9.44606 283.5,10.5C 280.79,23.7251 279.29,37.0584 279,50.5C 281.374,46.2505 283.874,42.0838 286.5,38C 290.202,36.6073 292.202,37.774 292.5,41.5C 288.879,50.0697 284.213,58.0697 278.5,65.5C 282.671,66.2284 286.837,65.8951 291,64.5C 295.467,65.9136 296.3,68.4136 293.5,72C 287.211,73.2265 281.045,74.7265 275,76.5C 274.782,79.4262 274.282,82.2595 273.5,85C 278.492,87.1609 283.159,89.8276 287.5,93C 289.648,95.0749 289.982,97.4082 288.5,100C 286.833,100.667 285.167,100.667 283.5,100C 280.337,97.5843 277.004,95.4177 273.5,93.5C 272.058,103.796 270.892,114.129 270,124.5C 268.097,127.955 265.763,128.288 263,125.5C 262.833,123.833 262.667,122.167 262.5,120.5C 263.464,109.798 264.298,99.1313 265,88.5C 261.882,93.2861 258.382,97.7861 254.5,102C 250.872,103.316 248.539,102.149 247.5,98.5C 253.111,92.1104 258.111,85.277 262.5,78C 258.951,77.8406 255.451,78.3406 252,79.5C 247.533,78.0864 246.7,75.5864 249.5,72C 255.714,70.1237 262.048,68.957 268.5,68.5C 270.03,47.653 272.697,26.9863 276.5,6.5 Z"/></g>
<g><path style="opacity:1" fill="#ed7f8b" d="M 46.5,8.5 C 48.4672,8.26057 50.3005,8.59391 52,9.5C 51.8135,20.5086 51.4802,31.5086 51,42.5C 52.8712,37.9188 55.3712,33.7522 58.5,30C 61.4963,29.3345 63.4963,30.5011 64.5,33.5C 60.9017,41.0864 56.9017,48.4198 52.5,55.5C 53,55.8333 53.5,56.1667 54,56.5C 60.7396,54.7252 67.5729,54.2252 74.5,55C 78.5926,58.2524 78.2593,61.0857 73.5,63.5C 64.9144,62.0136 56.5811,63.0136 48.5,66.5C 47.3384,70.4592 46.8384,74.4592 47,78.5C 47.6995,76.968 48.8662,75.968 50.5,75.5C 56.5312,78.3317 61.5312,82.3317 65.5,87.5C 64.8139,90.9981 62.8139,92.1647 59.5,91C 55.0493,88.2171 50.8826,85.0504 47,81.5C 44.7586,95.0915 42.7586,108.758 41,122.5C 40.3096,126.19 38.1429,127.357 34.5,126C 33.7069,124.915 33.0402,123.748 32.5,122.5C 35.7365,104.941 37.9032,87.2748 39,69.5C 31.0752,74.316 22.5752,76.316 13.5,75.5C 10.9557,73.3888 10.9557,71.2221 13.5,69C 22.9282,67.9682 31.7616,65.1348 40,60.5C 41.4813,43.0139 43.648,25.6805 46.5,8.5 Z"/></g>
<g><path style="opacity:1" fill="#ed7f8b" d="M 89.5,10.5 C 92.4678,10.6261 94.4678,12.1261 95.5,15C 92.7181,26.3427 88.5514,37.1761 83,47.5C 77.1516,49.6529 75.1516,47.6529 77,41.5C 81.8741,31.3614 86.0408,21.028 89.5,10.5 Z"/></g>
<g><path style="opacity:1" fill="#ed7f8b" d="M 314.5,15.5 C 317.571,14.9245 319.571,16.0912 320.5,19C 318.093,27.7817 316.26,36.6151 315,45.5C 318.57,44.2508 322.236,43.2508 326,42.5C 332.576,44.6936 333.076,47.6936 327.5,51.5C 326.833,51.1667 326.167,50.8333 325.5,50.5C 314.907,53.2251 304.574,56.3918 294.5,60C 291.045,58.0966 290.712,55.7632 293.5,53C 298.387,50.7232 303.387,48.7232 308.5,47C 307.106,46.044 306.439,44.7106 306.5,43C 308.412,35.1848 310.245,27.3514 312,19.5C 312.662,18.0161 313.496,16.6828 314.5,15.5 Z"/></g>
<g><path style="opacity:1" fill="#ed7f8b" d="M 392.5,23.5 C 402.639,23.7777 404.806,28.111 399,36.5C 392.81,42.0756 387.143,48.0756 382,54.5C 382.618,61.8784 383.785,69.2118 385.5,76.5C 387,76.8333 388.5,77.1667 390,77.5C 400.483,76.3342 410.983,75.8342 421.5,76C 424.288,78.7632 423.955,81.0966 420.5,83C 409.503,83.9581 398.503,84.7914 387.5,85.5C 389.207,96.4467 390.54,107.447 391.5,118.5C 391.887,131.475 385.887,135.975 373.5,132C 368.219,130.207 363.886,127.207 360.5,123C 361.333,120.833 362.833,119.333 365,118.5C 369.088,120.794 373.255,122.961 377.5,125C 379.441,125.743 381.274,125.576 383,124.5C 383.667,120.167 383.667,115.833 383,111.5C 381.785,103.163 380.619,94.8298 379.5,86.5C 367.576,86.9513 355.909,88.9513 344.5,92.5C 340.774,92.2017 339.607,90.2017 341,86.5C 347.787,83.3412 354.953,81.1745 362.5,80C 367.448,78.9502 372.448,78.4502 377.5,78.5C 375.676,70.2254 374.509,61.8921 374,53.5C 377.954,45.5332 383.454,38.6998 390.5,33C 380.632,33.5345 370.966,35.3678 361.5,38.5C 357.851,37.4612 356.684,35.1279 358,31.5C 369.408,27.9883 380.908,25.3216 392.5,23.5 Z"/></g>
<g><path style="opacity:1" fill="#ed7f8b" d="M 107.5,27.5 C 108.873,27.3433 110.207,27.51 111.5,28C 118.014,34.1953 123.181,41.3619 127,49.5C 128.5,54.6667 126.667,56.5 121.5,55C 117.108,47.2748 111.941,40.1081 106,33.5C 105.252,31.1599 105.752,29.1599 107.5,27.5 Z"/></g>
<g><path style="opacity:1" fill="#ed7f8b" d="M 28.5,32.5 C 29.9217,32.7086 31.255,33.2086 32.5,34C 35.7859,37.4441 38.4526,41.2775 40.5,45.5C 39.1608,49.171 36.8275,50.0044 33.5,48C 30.2141,44.5559 27.5474,40.7225 25.5,36.5C 25.7867,34.5567 26.7867,33.2233 28.5,32.5 Z"/></g>
<g><path style="opacity:1" fill="#9fd9ec" d="M 546.5,37.5 C 551.256,38.592 553.923,41.592 554.5,46.5C 553.588,52.898 551.088,58.5647 547,63.5C 542.537,68.7413 538.204,68.7413 534,63.5C 533.058,71.7899 528.558,75.6233 520.5,75C 516.02,71.1633 515.687,67.1633 519.5,63C 518.925,57.726 521.425,54.5593 527,53.5C 529.881,54.0427 531.881,55.7094 533,58.5C 533.977,55.8976 535.144,53.3976 536.5,51C 535.251,48.7904 535.418,46.6237 537,44.5C 539.529,41.1151 542.696,38.7818 546.5,37.5 Z M 545.5,45.5 C 546.376,45.3691 547.043,45.7025 547.5,46.5C 546.393,51.3809 544.226,55.7142 541,59.5C 541.049,57.325 541.549,55.1583 542.5,53C 542.265,52.1268 541.931,51.2935 541.5,50.5C 542.857,48.8144 544.19,47.1477 545.5,45.5 Z M 525.5,61.5 C 527.008,64.122 526.508,66.4553 524,68.5C 523.4,65.9047 523.9,63.5713 525.5,61.5 Z"/></g>
<g><path style="opacity:1" fill="#9fd9ec" d="M 486.5,60.5 C 483.196,65.6525 478.529,67.8192 472.5,67C 468.815,62.1241 468.649,56.9574 472,51.5C 472.75,50.8742 473.584,50.3742 474.5,50C 473.363,45.731 475.029,42.731 479.5,41C 483.684,39.8345 486.517,41.3345 488,45.5C 488.708,50.629 488.208,55.629 486.5,60.5 Z M 480.5,48.5 C 482.074,53.0876 480.907,57.0876 477,60.5C 476.852,58.0946 477.352,55.7613 478.5,53.5C 478.392,52.5581 478.059,51.7247 477.5,51C 478.942,50.6232 479.942,49.7899 480.5,48.5 Z"/></g>
<g><path style="opacity:1" fill="#9fd9ec" d="M 454.5,44.5 C 457.505,44.253 460.005,45.253 462,47.5C 465.549,59.7318 461.549,68.3984 450,73.5C 445.73,73.0633 443.23,70.73 442.5,66.5C 443.414,62.8394 444.747,59.3394 446.5,56C 445.198,54.0767 445.365,52.2434 447,50.5C 449.114,47.8792 451.614,45.8792 454.5,44.5 Z M 455.5,51.5 C 457.15,57.5732 455.317,62.5732 450,66.5C 452.477,61.5819 454.311,56.5819 455.5,51.5 Z"/></g>
<g><path style="opacity:1" fill="#ed7f8b" d="M 254.5,46.5 C 255.873,46.3433 257.207,46.51 258.5,47C 261.369,50.2041 264.535,53.0374 268,55.5C 268.833,60 267,61.8333 262.5,61C 259.035,58.5374 255.869,55.7041 253,52.5C 252.252,50.1599 252.752,48.1599 254.5,46.5 Z"/></g>
<g><path style="opacity:1" fill="#9fd9ec" d="M 560.5,50.5 C 569.13,50.6279 571.964,54.9612 569,63.5C 567.099,70.4067 562.599,73.9067 555.5,74C 561.851,79.9864 563.018,86.8198 559,94.5C 553.058,99.3648 546.892,99.6981 540.5,95.5C 533.008,98.714 527.841,96.3807 525,88.5C 524.472,78.6144 529.305,72.1144 539.5,69C 544.601,67.9237 549.101,69.0904 553,72.5C 552.208,69.8089 552.541,67.1422 554,64.5C 556.12,61.9199 558.287,61.9199 560.5,64.5C 562.256,62.8087 562.756,60.8087 562,58.5C 558.828,61.3883 556.661,60.7216 555.5,56.5C 556.465,53.8724 558.132,51.8724 560.5,50.5 Z M 540.5,75.5 C 549.694,75.8571 554.194,80.5237 554,89.5C 551.519,91.3137 548.685,91.9804 545.5,91.5C 545.348,87.5134 543.348,86.0134 539.5,87C 536.283,91.7359 533.616,91.4026 531.5,86C 532.944,81.0633 535.944,77.5633 540.5,75.5 Z"/></g>
<g><path style="opacity:1" fill="#9fd9ec" d="M 486.5,60.5 C 493.089,55.4716 497.756,56.805 500.5,64.5C 499.316,71.1836 495.483,75.5169 489,77.5C 483.47,75.9521 481.97,72.7854 484.5,68C 486.567,67.4644 488.401,67.9644 490,69.5C 491.022,68.646 491.855,67.646 492.5,66.5C 491.019,66.6347 489.353,66.3014 487.5,65.5C 486.548,63.9547 486.215,62.288 486.5,60.5 Z"/></g>
<g><path style="opacity:1" fill="#9fd9ec" d="M 466.5,69.5 C 480.187,70.527 486.02,77.8603 484,91.5C 483.099,95.9954 480.432,98.662 476,99.5C 472.166,98.4992 468.666,96.8325 465.5,94.5C 459.498,98.6791 453.998,98.0124 449,92.5C 447.067,87.31 447.567,82.31 450.5,77.5C 455.379,73.7273 460.712,71.0606 466.5,69.5 Z M 467.5,76.5 C 476.858,78.2116 479.692,83.5449 476,92.5C 472.576,90.0817 468.91,88.0817 465,86.5C 462.976,88.0159 460.809,89.3492 458.5,90.5C 457.252,89.9598 456.085,89.2931 455,88.5C 454.79,85.7314 455.623,83.2314 457.5,81C 460.815,79.1702 464.149,77.6702 467.5,76.5 Z"/></g>
<g><path style="opacity:1" fill="#ed7f8b" d="M 98.5,70.5 C 103.777,69.9312 108.777,70.7645 113.5,73C 114.46,74.4194 115.293,75.9194 116,77.5C 117.528,84.7475 118.361,92.0808 118.5,99.5C 118.769,104.709 117.936,109.709 116,114.5C 112.123,119.56 108.623,119.56 105.5,114.5C 106.455,112.051 107.955,110.051 110,108.5C 110.702,99.7968 110.368,91.1302 109,82.5C 108.691,81.2341 108.191,80.0674 107.5,79C 104.833,78.3333 102.167,78.3333 99.5,79C 94.8551,97.291 86.5218,113.624 74.5,128C 68.609,128.362 67.109,125.862 70,120.5C 79.685,109.13 86.185,96.1301 89.5,81.5C 84.6723,82.1599 82.839,80.1599 84,75.5C 88.7467,73.2804 93.58,71.6137 98.5,70.5 Z"/></g>
<g><path style="opacity:1" fill="#ed7f8b" d="M 292.5,73.5 C 294.722,73.178 296.556,73.8446 298,75.5C 302.92,83.6717 307.587,92.005 312,100.5C 316.303,92.599 319.636,84.2656 322,75.5C 324.72,72.6812 327.053,73.0145 329,76.5C 325.833,91.8145 320,106.148 311.5,119.5C 317.229,119.412 323.229,119.579 329.5,120C 330.833,122 330.833,124 329.5,126C 318.212,126.823 307.045,128.657 296,131.5C 292.795,130.202 291.795,127.868 293,124.5C 296.051,123.188 299.217,122.188 302.5,121.5C 304.43,116.473 306.763,111.64 309.5,107C 307.671,106.727 306.171,105.893 305,104.5C 299.927,95.6027 295.093,86.6027 290.5,77.5C 290.752,75.9271 291.418,74.5938 292.5,73.5 Z"/></g>
<g><path style="opacity:1" fill="#9fd9ec" d="M 573.5,73.5 C 579.294,72.7225 582.294,75.2225 582.5,81C 581.734,89.1116 577.401,92.7783 569.5,92C 568.13,90.5587 567.13,88.892 566.5,87C 568.171,82.1525 570.504,77.6525 573.5,73.5 Z"/></g>
<g><path style="opacity:1" fill="#9fd9ec" d="M 497.5,75.5 C 505.461,75.4193 507.961,79.086 505,86.5C 500.929,92.8004 495.429,94.9671 488.5,93C 485.941,89.9253 485.941,86.9253 488.5,84C 489.5,83.3333 490.5,83.3333 491.5,84C 493.718,87.0888 496.051,87.0888 498.5,84C 494.11,84.9447 492.277,83.1113 493,78.5C 494.652,77.6006 496.152,76.6006 497.5,75.5 Z"/></g>
<g><path style="opacity:1" fill="#ed7f8b" d="M 28.5,81.5 C 31.7787,81.3051 33.7787,82.8051 34.5,86C 32.1339,90.5646 29.6339,95.0646 27,99.5C 25.3616,102.909 22.8616,103.909 19.5,102.5C 18.359,100.579 18.1923,98.5787 19,96.5C 22.1774,91.4718 25.3441,86.4718 28.5,81.5 Z"/></g>
<g><path style="opacity:1" fill="#ed7f8b" d="M 214.5,115.5 C 215.914,117.872 215.58,120.039 213.5,122C 207.833,122.667 202.167,122.667 196.5,122C 195.167,120 195.167,118 196.5,116C 194.903,113.974 193.903,111.641 193.5,109C 194.127,105.483 194.793,101.983 195.5,98.5C 200.76,96.4798 206.26,95.1464 212,94.5C 214.918,95.0827 217.751,95.916 220.5,97C 221.894,98.7395 222.561,100.739 222.5,103C 221.663,106.813 221.497,110.647 222,114.5C 219.852,117.945 217.352,118.279 214.5,115.5 Z M 214.5,115.5 C 210.6,114.57 206.6,114.237 202.5,114.5C 202.18,111.102 202.513,107.768 203.5,104.5C 207.105,103.51 210.772,102.844 214.5,102.5C 213.903,106.743 213.903,111.076 214.5,115.5 Z"/></g>
<g><path style="opacity:1" fill="#ed7f8b" d="M 743.5,95.5 C 745.288,95.2148 746.955,95.5481 748.5,96.5C 750.897,100.523 752.397,104.856 753,109.5C 756.929,107.015 761.096,106.349 765.5,107.5C 766.428,108.768 766.595,110.101 766,111.5C 755.15,115.453 744.316,119.62 733.5,124C 727.44,125.066 726.106,123.066 729.5,118C 735.197,115.483 740.864,112.983 746.5,110.5C 745.366,106.432 744.033,102.432 742.5,98.5C 742.685,97.4163 743.018,96.4163 743.5,95.5 Z"/></g>
<g><path style="opacity:1" fill="#ed7f8b" d="M 565.5,108.5 C 567.199,108.34 568.866,108.506 570.5,109C 571.059,109.725 571.392,110.558 571.5,111.5C 567.539,121.882 563.873,132.382 560.5,143C 574.651,151.402 577.817,162.902 570,177.5C 566.791,182.364 563.958,182.364 561.5,177.5C 567.746,170.941 568.913,163.607 565,155.5C 563.019,153.343 560.686,151.676 558,150.5C 554.11,163.434 549.276,175.934 543.5,188C 540.433,189.164 538.767,188.164 538.5,185C 539.376,181.727 540.21,178.561 541,175.5C 538.708,174.21 536.708,172.543 535,170.5C 530.209,175.311 525.209,175.644 520,171.5C 519.833,170.167 519.667,168.833 519.5,167.5C 520.515,162.462 521.348,157.462 522,152.5C 519,153.833 516,153.833 513,152.5C 512.137,150.251 512.637,148.418 514.5,147C 521.179,146.132 527.679,144.632 534,142.5C 539.243,147.454 538.076,150.12 530.5,150.5C 529.479,155.732 528.146,160.899 526.5,166C 526.833,166.5 527.167,167 527.5,167.5C 529.047,166.232 530.047,164.565 530.5,162.5C 533.259,159.905 535.926,160.072 538.5,163C 539.958,165.46 541.791,167.627 544,169.5C 546.172,163.65 548.338,157.817 550.5,152C 548.559,151.257 546.726,151.424 545,152.5C 541.925,151.531 540.925,149.531 542,146.5C 545.621,144.81 549.454,143.81 553.5,143.5C 556.708,131.542 560.708,119.875 565.5,108.5 Z"/></g>
<g><path style="opacity:1" fill="#ed7f8b" d="M 596.5,109.5 C 599.525,110.033 600.858,111.867 600.5,115C 599.734,121.163 599.067,127.33 598.5,133.5C 603.682,133.786 605.016,135.953 602.5,140C 600.866,140.494 599.199,140.66 597.5,140.5C 597.105,144.185 596.938,147.852 597,151.5C 599.827,150.001 601.66,150.835 602.5,154C 601.49,157.209 599.157,158.709 595.5,158.5C 594.253,166.808 593.086,175.142 592,183.5C 588.146,186.487 585.979,185.487 585.5,180.5C 586.136,173.899 587.136,167.399 588.5,161C 586.144,160.845 583.811,160.845 581.5,161C 579.398,159.267 579.065,157.267 580.5,155C 583.365,154.163 586.198,153.33 589,152.5C 589.61,149.173 590.11,145.839 590.5,142.5C 587.975,143.861 585.642,145.527 583.5,147.5C 581.431,147.215 580.098,146.048 579.5,144C 582.122,138.462 584.122,132.795 585.5,127C 587.112,126.28 588.612,126.446 590,127.5C 590.333,130.167 590.667,132.833 591,135.5C 591.934,127.824 592.934,120.157 594,112.5C 594.698,111.309 595.531,110.309 596.5,109.5 Z"/></g>
<g><path style="opacity:1" fill="#ed7f8b" d="M 683.5,111.5 C 687.182,111.335 690.848,111.501 694.5,112C 695.935,114.267 695.602,116.267 693.5,118C 681.883,117.989 670.883,120.489 660.5,125.5C 658.5,124.833 657.167,123.5 656.5,121.5C 658.091,118.744 660.424,116.911 663.5,116C 670.177,113.95 676.844,112.45 683.5,111.5 Z"/></g>
<g><path style="opacity:1" fill="#ed7f8b" d="M 495.5,116.5 C 501.585,115.099 505.085,117.432 506,123.5C 506.785,134.772 505.451,145.772 502,156.5C 501.044,157.579 500.211,158.745 499.5,160C 493.959,161.869 488.293,162.535 482.5,162C 481.74,160.559 481.074,159.059 480.5,157.5C 477.247,156.402 473.914,155.736 470.5,155.5C 470.664,158.187 470.497,160.854 470,163.5C 468.112,165.922 466.112,165.922 464,163.5C 463.503,161.19 463.337,158.857 463.5,156.5C 459.831,157.303 457.164,156.136 455.5,153C 456.975,150.691 458.642,148.524 460.5,146.5C 459.019,146.635 457.353,146.301 455.5,145.5C 454.167,143.833 454.167,142.167 455.5,140.5C 458.053,139.195 460.72,138.195 463.5,137.5C 464.804,132.281 464.804,127.114 463.5,122C 464.741,118.651 466.908,117.818 470,119.5C 471.022,125.119 471.855,130.786 472.5,136.5C 477.659,135.032 479.325,136.865 477.5,142C 475.564,142.813 473.564,143.313 471.5,143.5C 471.714,145.144 471.38,146.644 470.5,148C 474.05,148.784 477.55,149.617 481,150.5C 480.862,141.319 481.862,132.319 484,123.5C 487.814,121.016 491.647,118.682 495.5,116.5 Z M 496.5,123.5 C 497.496,123.414 498.329,123.748 499,124.5C 499.667,127.833 499.667,131.167 499,134.5C 496.104,132.255 492.937,131.922 489.5,133.5C 488.369,131.926 488.202,130.259 489,128.5C 491.824,127.182 494.324,125.515 496.5,123.5 Z M 497.5,138.5 C 498.622,140.288 498.789,142.288 498,144.5C 495.199,143.205 492.366,143.205 489.5,144.5C 488.167,143.167 488.167,141.833 489.5,140.5C 492.311,139.92 494.977,139.254 497.5,138.5 Z M 495.5,149.5 C 496.705,150.672 496.705,152.005 495.5,153.5C 492.836,154.909 490.169,155.243 487.5,154.5C 487.865,153.098 488.699,152.098 490,151.5C 492.03,151.046 493.863,150.38 495.5,149.5 Z"/></g>
<g><path style="opacity:1" fill="#ed7f8b" d="M 617.5,117.5 C 620.136,117.491 621.469,118.825 621.5,121.5C 620.859,125.59 619.526,129.424 617.5,133C 622.148,132.538 626.814,132.205 631.5,132C 635.471,133.88 637.637,137.047 638,141.5C 640.728,151.76 641.395,162.094 640,172.5C 637.594,180.261 632.761,182.428 625.5,179C 623.106,177.048 621.606,174.548 621,171.5C 617.799,175.036 614.299,178.203 610.5,181C 606.333,182.167 604.833,180.667 606,176.5C 614.086,169.135 620.586,160.635 625.5,151C 628.353,150.341 630.02,151.508 630.5,154.5C 628.738,159.859 626.072,164.692 622.5,169C 624.256,169.202 625.922,169.702 627.5,170.5C 628.938,173.823 630.771,174.156 633,171.5C 634.481,160.666 633.481,149.999 630,139.5C 629.439,138.978 628.772,138.645 628,138.5C 624.855,139.411 621.688,140.245 618.5,141C 620.211,142.133 620.711,143.633 620,145.5C 615.957,151.753 611.79,157.92 607.5,164C 602.9,165.583 601.066,164.083 602,159.5C 605.493,155.482 608.16,151.148 610,146.5C 607.131,149.009 604.964,148.342 603.5,144.5C 609.007,135.816 613.674,126.816 617.5,117.5 Z"/></g>
<g><path style="opacity:1" fill="#ed7f8b" d="M 743.5,121.5 C 747.92,122.78 749.587,125.78 748.5,130.5C 754.752,129.919 758.085,132.753 758.5,139C 757.715,143.927 756.548,148.761 755,153.5C 752.674,154.813 751.341,156.813 751,159.5C 747.612,161.058 744.112,162.392 740.5,163.5C 739.143,167 739.476,170.333 741.5,173.5C 745.22,172.069 747.553,169.402 748.5,165.5C 749.293,165.069 750.127,164.735 751,164.5C 754.494,167.615 757.661,171.115 760.5,175C 757.897,179.457 754.897,179.624 751.5,175.5C 747.569,179.31 742.902,180.81 737.5,180C 735.951,178.786 734.785,177.286 734,175.5C 732.974,170.215 732.307,164.882 732,159.5C 731.102,167.99 729.435,176.323 727,184.5C 724.567,189.711 722.067,189.711 719.5,184.5C 722.122,176.346 723.955,168.013 725,159.5C 725.178,149.129 725.345,138.796 725.5,128.5C 728.331,124.322 730.664,124.656 732.5,129.5C 731.243,132.823 731.243,136.156 732.5,139.5C 735.246,137.377 738.079,135.377 741,133.5C 741.007,129.19 741.841,125.19 743.5,121.5 Z M 749.5,137.5 C 750.497,137.47 751.164,137.97 751.5,139C 750.922,140.811 750.422,142.645 750,144.5C 747.2,143.557 744.366,143.724 741.5,145C 739.667,145.5 738.5,146.667 738,148.5C 736.599,146.808 734.766,146.141 732.5,146.5C 732.343,145.127 732.51,143.793 733,142.5C 733.739,143.574 734.739,144.241 736,144.5C 740.498,142.002 744.998,139.669 749.5,137.5 Z M 738.5,150.5 C 741.469,151.825 744.469,151.825 747.5,150.5C 748.262,151.628 748.929,152.795 749.5,154C 746.026,154.301 742.692,155.134 739.5,156.5C 738.534,154.604 738.201,152.604 738.5,150.5 Z"/></g>
<g><path style="opacity:1" fill="#ed7f8b" d="M 528.5,127.5 C 531.044,127.104 533.211,127.771 535,129.5C 535.711,131.367 535.211,132.867 533.5,134C 529.142,134.788 524.809,135.622 520.5,136.5C 516.658,135.036 515.991,132.869 518.5,130C 521.952,129.115 525.286,128.282 528.5,127.5 Z"/></g>
<g><path style="opacity:1" fill="#ed7f8b" d="M 768.5,130.5 C 772.388,130.345 775.888,131.345 779,133.5C 780.402,138.069 778.902,141.735 774.5,144.5C 778.208,146.701 780.542,149.867 781.5,154C 779.896,159.986 775.896,162.819 769.5,162.5C 770.671,168.852 772.004,175.186 773.5,181.5C 773.392,182.442 773.059,183.275 772.5,184C 770.559,184.743 768.726,184.576 767,183.5C 764.3,171.701 761.134,160.035 757.5,148.5C 758.741,145.856 760.741,145.023 763.5,146C 765.5,149 767.5,152 769.5,155C 771.289,155.52 772.956,155.187 774.5,154C 772.695,151.597 770.362,149.93 767.5,149C 764.777,144.077 766.11,140.411 771.5,138C 768.867,138.253 766.2,138.253 763.5,138C 760.833,136 760.833,134 763.5,132C 765.382,131.802 767.048,131.302 768.5,130.5 Z"/></g>
<g><path style="opacity:1" fill="#ed7f8b" d="M 678.5,131.5 C 695.499,128.667 701.999,135.667 698,152.5C 697.408,156.276 696.408,159.943 695,163.5C 692.156,167.657 689.656,167.491 687.5,163C 691.1,155.538 692.267,147.705 691,139.5C 688.281,138.556 685.448,138.223 682.5,138.5C 683.051,141.807 683.384,145.14 683.5,148.5C 686.55,147.923 688.55,149.09 689.5,152C 687.95,154.525 685.783,156.359 683,157.5C 682.505,159.473 682.338,161.473 682.5,163.5C 686.919,164.323 687.586,166.49 684.5,170C 679.242,170.773 674.075,171.94 669,173.5C 665.836,173.233 664.836,171.567 666,168.5C 668.727,166.59 671.727,165.256 675,164.5C 675.667,162.5 675.667,160.5 675,158.5C 672.833,160.464 670.499,160.798 668,159.5C 667.955,162.334 667.121,164.834 665.5,167C 663.633,167.711 662.133,167.211 661,165.5C 660.649,158.077 659.149,150.91 656.5,144C 657.969,140.174 660.136,139.674 663,142.5C 665.264,146.887 666.597,151.554 667,156.5C 669.237,153.242 672.403,151.575 676.5,151.5C 676.766,147.395 676.266,143.395 675,139.5C 673.139,140.764 671.139,141.764 669,142.5C 664.532,140.395 664.365,137.895 668.5,135C 671.942,133.816 675.275,132.65 678.5,131.5 Z"/></g>
<g><path style="opacity:1" fill="#ed7f8b" d="M 433.5,136.5 C 438.126,135.7 441.96,137.034 445,140.5C 450.668,151.507 453.001,163.174 452,175.5C 450.659,185.229 445.492,188.729 436.5,186C 431.849,182.997 431.516,179.83 435.5,176.5C 437.772,177.441 439.772,178.774 441.5,180.5C 443.636,179.528 444.803,177.861 445,175.5C 446.024,164.284 443.857,153.784 438.5,144C 437.167,143.333 435.833,143.333 434.5,144C 430.961,146.226 427.461,148.393 424,150.5C 421.741,150.739 420.574,149.739 420.5,147.5C 421.219,145.272 422.552,143.439 424.5,142C 427.263,139.626 430.263,137.792 433.5,136.5 Z"/></g>
<g><path style="opacity:1" fill="#ed7f8b" d="M 408.5,137.5 C 411.261,136.915 412.927,137.915 413.5,140.5C 411.115,145.06 408.115,149.227 404.5,153C 408.95,153.776 410.45,156.276 409,160.5C 406.361,164.639 403.528,168.639 400.5,172.5C 401.002,173.521 401.668,173.688 402.5,173C 404.167,171.333 405.833,169.667 407.5,168C 409.167,167.333 410.833,167.333 412.5,168C 415,170.5 417.5,173 420,175.5C 421.075,178.531 420.075,180.531 417,181.5C 414.372,179.874 412.039,177.874 410,175.5C 402.971,182.511 396.804,182.011 391.5,174C 393.907,169.862 396.573,165.862 399.5,162C 395.818,160.68 394.318,158.18 395,154.5C 398.572,148.095 403.072,142.428 408.5,137.5 Z"/></g>
<g><path style="opacity:1" fill="#ed7f8b" d="M 706.5,149.5 C 708.288,149.215 709.955,149.548 711.5,150.5C 714.327,162.33 715.16,174.33 714,186.5C 712.33,188.698 710.33,189.032 708,187.5C 707.825,183.789 707.325,180.122 706.5,176.5C 691.256,184.207 675.256,186.374 658.5,183C 655.751,181.877 653.251,180.377 651,178.5C 647.667,172.496 646.5,166.163 647.5,159.5C 649.074,158.369 650.741,158.202 652.5,159C 653.534,163.829 654.701,168.663 656,173.5C 658.344,175.774 661.178,176.941 664.5,177C 670.5,177.667 676.5,177.667 682.5,177C 691.095,175.189 699.428,172.689 707.5,169.5C 707.27,164.119 706.604,158.786 705.5,153.5C 705.623,152.075 705.957,150.742 706.5,149.5 Z"/></g>
<g><path style="opacity:1" fill="#ed7f8b" d="M 478.5,165.5 C 480.199,165.34 481.866,165.506 483.5,166C 484.551,167.385 485.884,168.385 487.5,169C 490.388,172.172 489.722,174.339 485.5,175.5C 479.791,174.176 477.458,170.843 478.5,165.5 Z"/></g>
<g><path style="opacity:1" fill="#ed7f8b" d="M 499.5,165.5 C 504.179,166.325 508.346,168.325 512,171.5C 512.934,176.083 511.1,177.583 506.5,176C 504.33,174.414 501.996,173.08 499.5,172C 496.929,169.744 496.929,167.578 499.5,165.5 Z"/></g>
<g><path style="opacity:1" fill="#ed7f8b" d="M 463.5,167.5 C 466.567,167.016 468.567,168.182 469.5,171C 468.132,173.567 466.632,176.067 465,178.5C 462.099,181.318 459.599,180.984 457.5,177.5C 459.511,174.139 461.511,170.806 463.5,167.5 Z"/></g>
<g><path style="opacity:1" fill="#ed7f8b" d="M 473.5,174.5 C 474.552,174.351 475.552,174.517 476.5,175C 479.477,180.82 484.144,182.82 490.5,181C 493.606,179.364 496.773,177.864 500,176.5C 504.468,178.605 504.635,181.105 500.5,184C 492.248,189.422 483.915,189.756 475.5,185C 471.364,181.985 470.697,178.485 473.5,174.5 Z"/></g>
</svg>
