<?xml version="1.0" encoding="UTF-8"?>
<!DOCTYPE svg PUBLIC "-//W3C//DTD SVG 1.1//EN" "http://www.w3.org/Graphics/SVG/1.1/DTD/svg11.dtd">
<svg xmlns="http://www.w3.org/2000/svg" version="1.1" width="500px" height="500px" style="shape-rendering:geometricPrecision; text-rendering:geometricPrecision; image-rendering:optimizeQuality; fill-rule:evenodd; clip-rule:evenodd" xmlns:xlink="http://www.w3.org/1999/xlink">
<g><path style="opacity:1" fill="#000000" d="M -0.5,-0.5 C 166.167,-0.5 332.833,-0.5 499.5,-0.5C 499.5,166.167 499.5,332.833 499.5,499.5C 332.833,499.5 166.167,499.5 -0.5,499.5C -0.5,332.833 -0.5,166.167 -0.5,-0.5 Z"/></g>
<g><path style="opacity:1" fill="#fefffe" d="M 449.5,149.5 C 432.833,149.5 416.167,149.5 399.5,149.5C 399.5,132.833 399.5,116.167 399.5,99.5C 366.167,99.5 332.833,99.5 299.5,99.5C 299.5,116.167 299.5,132.833 299.5,149.5C 266.167,149.5 232.833,149.5 199.5,149.5C 199.5,132.833 199.5,116.167 199.5,99.5C 166.167,99.5 132.833,99.5 99.5,99.5C 99.5,116.167 99.5,132.833 99.5,149.5C 82.8333,149.5 66.1667,149.5 49.5,149.5C 49.5,116.167 49.5,82.8333 49.5,49.5C 182.833,49.5 316.167,49.5 449.5,49.5C 449.5,82.8333 449.5,116.167 449.5,149.5 Z"/></g>
<g><path style="opacity:1" fill="#fe9998" d="M 449.5,149.5 C 449.5,182.833 449.5,216.167 449.5,249.5C 432.833,249.5 416.167,249.5 399.5,249.5C 399.5,266.167 399.5,282.833 399.5,299.5C 382.833,299.5 366.167,299.5 349.5,299.5C 349.5,316.167 349.5,332.833 349.5,349.5C 332.833,349.5 316.167,349.5 299.5,349.5C 299.5,366.167 299.5,382.833 299.5,399.5C 266.167,399.5 232.833,399.5 199.5,399.5C 199.5,382.833 199.5,366.167 199.5,349.5C 182.833,349.5 166.167,349.5 149.5,349.5C 149.5,332.833 149.5,316.167 149.5,299.5C 132.833,299.5 116.167,299.5 99.5,299.5C 99.5,282.833 99.5,266.167 99.5,249.5C 82.8333,249.5 66.1667,249.5 49.5,249.5C 49.5,216.167 49.5,182.833 49.5,149.5C 66.1667,149.5 82.8333,149.5 99.5,149.5C 99.5,132.833 99.5,116.167 99.5,99.5C 132.833,99.5 166.167,99.5 199.5,99.5C 199.5,116.167 199.5,132.833 199.5,149.5C 232.833,149.5 266.167,149.5 299.5,149.5C 299.5,132.833 299.5,116.167 299.5,99.5C 332.833,99.5 366.167,99.5 399.5,99.5C 399.5,116.167 399.5,132.833 399.5,149.5C 416.167,149.5 432.833,149.5 449.5,149.5 Z"/></g>
<g><path style="opacity:1" fill="#fefffe" d="M 49.5,249.5 C 66.1667,249.5 82.8333,249.5 99.5,249.5C 99.5,266.167 99.5,282.833 99.5,299.5C 116.167,299.5 132.833,299.5 149.5,299.5C 149.5,316.167 149.5,332.833 149.5,349.5C 166.167,349.5 182.833,349.5 199.5,349.5C 199.5,366.167 199.5,382.833 199.5,399.5C 232.833,399.5 266.167,399.5 299.5,399.5C 299.5,382.833 299.5,366.167 299.5,349.5C 316.167,349.5 332.833,349.5 349.5,349.5C 349.5,332.833 349.5,316.167 349.5,299.5C 366.167,299.5 382.833,299.5 399.5,299.5C 399.5,282.833 399.5,266.167 399.5,249.5C 416.167,249.5 432.833,249.5 449.5,249.5C 449.5,316.167 449.5,382.833 449.5,449.5C 316.167,449.5 182.833,449.5 49.5,449.5C 49.5,382.833 49.5,316.167 49.5,249.5 Z"/></g>
</svg>
