<?xml version="1.0" encoding="UTF-8"?>
<!DOCTYPE svg PUBLIC "-//W3C//DTD SVG 1.1//EN" "http://www.w3.org/Graphics/SVG/1.1/DTD/svg11.dtd">
<svg xmlns="http://www.w3.org/2000/svg" version="1.1" width="1500px" height="500px" style="shape-rendering:geometricPrecision; text-rendering:geometricPrecision; image-rendering:optimizeQuality; fill-rule:evenodd; clip-rule:evenodd" xmlns:xlink="http://www.w3.org/1999/xlink">
<g><path style="opacity:0.964" fill="#000000" d="M 34.5,31.5 C 252.167,31.5 469.833,31.5 687.5,31.5C 687.5,46.1667 687.5,60.8333 687.5,75.5C 484.833,75.3333 282.166,75.5 79.5,76C 80.4972,124.428 80.8305,172.928 80.5,221.5C 65.1667,223.167 49.8333,224.833 34.5,226.5C 34.5,161.5 34.5,96.5 34.5,31.5 Z"/></g>
<g><path style="opacity:0.95" fill="#ff9999" d="M 716.5,31.5 C 736.167,31.5 755.833,31.5 775.5,31.5C 775.5,76.5 775.5,121.5 775.5,166.5C 1002.55,144.828 1229.55,122.828 1456.5,100.5C 1457.5,109.141 1457.83,117.808 1457.5,126.5C 1230.17,148.167 1002.83,169.833 775.5,191.5C 775.5,230.833 775.5,270.167 775.5,309.5C 1002.83,331.167 1230.17,352.833 1457.5,374.5C 1457.83,383.192 1457.5,391.859 1456.5,400.5C 1229.55,378.172 1002.55,356.172 775.5,334.5C 775.5,379.5 775.5,424.5 775.5,469.5C 755.833,469.5 736.167,469.5 716.5,469.5C 716.5,422.5 716.5,375.5 716.5,328.5C 489.166,306.833 261.833,285.167 34.5,263.5C 34.5,254.833 34.5,246.167 34.5,237.5C 261.833,215.833 489.166,194.167 716.5,172.5C 716.5,125.5 716.5,78.5 716.5,31.5 Z M 710.5,197.5 C 712.5,197.5 714.5,197.5 716.5,197.5C 716.5,232.833 716.5,268.167 716.5,303.5C 534.466,286.194 352.466,268.527 170.5,250.5C 350.644,232.821 530.644,215.155 710.5,197.5 Z"/></g>
<g><path style="opacity:0.963" fill="#000000" d="M 805.5,31.5 C 1022.83,31.5 1240.17,31.5 1457.5,31.5C 1457.5,50.5 1457.5,69.5 1457.5,88.5C 1440.51,90.2319 1423.51,91.8986 1406.5,93.5C 1406.19,87.5746 1406.53,81.7412 1407.5,76C 1206.83,75.5 1006.17,75.3333 805.5,75.5C 805.5,60.8333 805.5,46.1667 805.5,31.5 Z"/></g>
<g><path style="opacity:1" fill="#ffa3a3" d="M 1451.5,103.5 C 1452.92,102.549 1454.59,102.216 1456.5,102.5C 1456.67,110.174 1456.5,117.841 1456,125.5C 1455.5,118.174 1455.33,110.841 1455.5,103.5C 1454.17,103.5 1452.83,103.5 1451.5,103.5 Z"/></g>
<g><path style="opacity:0.964" fill="#000000" d="M 1453.5,137.5 C 1454.83,137.5 1456.17,137.5 1457.5,137.5C 1457.5,212.167 1457.5,286.833 1457.5,361.5C 1440.59,359.825 1423.75,357.825 1407,355.5C 1406.33,284.833 1406.33,214.167 1407,143.5C 1422.58,141.394 1438.08,139.394 1453.5,137.5 Z"/></g>
<g><path style="opacity:0.967" fill="#000000" d="M 34.5,275.5 C 49.7783,276.549 64.945,278.216 80,280.5C 80.8302,327.071 80.6635,373.571 79.5,420C 282.166,420.5 484.833,420.667 687.5,420.5C 687.5,436.833 687.5,453.167 687.5,469.5C 469.833,469.5 252.167,469.5 34.5,469.5C 34.5,404.833 34.5,340.167 34.5,275.5 Z"/></g>
<g><path style="opacity:1" fill="#ffa3a3" d="M 1455.5,375.5 C 1456.49,382.982 1456.83,390.648 1456.5,398.5C 1450.83,398.336 1450.5,398.003 1455.5,397.5C 1455.5,390.167 1455.5,382.833 1455.5,375.5 Z"/></g>
<g><path style="opacity:0.967" fill="#000000" d="M 1406.5,409.5 C 1423.54,410.837 1440.54,412.504 1457.5,414.5C 1457.5,432.833 1457.5,451.167 1457.5,469.5C 1240.17,469.5 1022.83,469.5 805.5,469.5C 805.5,453.167 805.5,436.833 805.5,420.5C 1006.17,420.667 1206.83,420.5 1407.5,420C 1406.54,416.606 1406.21,413.106 1406.5,409.5 Z"/></g>
</svg>
