<?xml version="1.0" standalone="yes"?>
<svg xmlns="http://www.w3.org/2000/svg" width="500" height="500">
<path style="fill:#000000; stroke:none;" d="M0 0L0 500L500 500L500 0L0 0z"/>
<path style="fill:#6496c8; stroke:none;" d="M50 50L50 100L100 100L100 50L50 50z"/>
<path style="fill:#ffffff; stroke:none;" d="M100 50L100 100L50 100L50 400L100 400L100 450L400 450L400 400L450 400L450 100L400 100L400 50L100 50z"/>
<path style="fill:#6496c8; stroke:none;" d="M400 50L400 100L450 100L450 50L400 50M200 100L200 200L100 200L100 300L200 300L200 400L300 400L300 300L400 300L400 200L300 200L300 100L200 100M50 400L50 450L100 450L100 400L50 400M400 400L400 450L450 450L450 400L400 400z"/>
</svg>
