<?xml version="1.0" encoding="UTF-8"?>
<!DOCTYPE svg PUBLIC "-//W3C//DTD SVG 1.1//EN" "http://www.w3.org/Graphics/SVG/1.1/DTD/svg11.dtd">
<svg xmlns="http://www.w3.org/2000/svg" version="1.1" width="250px" height="250px" style="shape-rendering:geometricPrecision; text-rendering:geometricPrecision; image-rendering:optimizeQuality; fill-rule:evenodd; clip-rule:evenodd" xmlns:xlink="http://www.w3.org/1999/xlink">
<g><path style="opacity:1" fill="#000000" d="M -0.5,-0.5 C 82.8333,-0.5 166.167,-0.5 249.5,-0.5C 249.5,82.8333 249.5,166.167 249.5,249.5C 166.167,249.5 82.8333,249.5 -0.5,249.5C -0.5,166.167 -0.5,82.8333 -0.5,-0.5 Z"/></g>
<g><path style="opacity:1" fill="#fefffe" d="M 99.5,24.5 C 99.5,32.8333 99.5,41.1667 99.5,49.5C 91.1667,49.5 82.8333,49.5 74.5,49.5C 74.5,57.8333 74.5,66.1667 74.5,74.5C 66.1667,74.5 57.8333,74.5 49.5,74.5C 49.5,82.8333 49.5,91.1667 49.5,99.5C 41.1667,99.5 32.8333,99.5 24.5,99.5C 24.5,74.5 24.5,49.5 24.5,24.5C 49.5,24.5 74.5,24.5 99.5,24.5 Z"/></g>
<g><path style="opacity:1" fill="#6496c8" d="M 99.5,24.5 C 116.167,24.5 132.833,24.5 149.5,24.5C 149.5,32.8333 149.5,41.1667 149.5,49.5C 157.833,49.5 166.167,49.5 174.5,49.5C 174.5,57.8333 174.5,66.1667 174.5,74.5C 182.833,74.5 191.167,74.5 199.5,74.5C 199.5,82.8333 199.5,91.1667 199.5,99.5C 207.833,99.5 216.167,99.5 224.5,99.5C 224.5,116.167 224.5,132.833 224.5,149.5C 216.167,149.5 207.833,149.5 199.5,149.5C 199.5,174.5 199.5,199.5 199.5,224.5C 149.5,224.5 99.5,224.5 49.5,224.5C 49.5,199.5 49.5,174.5 49.5,149.5C 41.1667,149.5 32.8333,149.5 24.5,149.5C 24.5,132.833 24.5,116.167 24.5,99.5C 32.8333,99.5 41.1667,99.5 49.5,99.5C 49.5,91.1667 49.5,82.8333 49.5,74.5C 57.8333,74.5 66.1667,74.5 74.5,74.5C 74.5,66.1667 74.5,57.8333 74.5,49.5C 82.8333,49.5 91.1667,49.5 99.5,49.5C 99.5,41.1667 99.5,32.8333 99.5,24.5 Z"/></g>
<g><path style="opacity:1" fill="#fefffe" d="M 149.5,24.5 C 174.5,24.5 199.5,24.5 224.5,24.5C 224.5,49.5 224.5,74.5 224.5,99.5C 216.167,99.5 207.833,99.5 199.5,99.5C 199.5,91.1667 199.5,82.8333 199.5,74.5C 191.167,74.5 182.833,74.5 174.5,74.5C 174.5,66.1667 174.5,57.8333 174.5,49.5C 166.167,49.5 157.833,49.5 149.5,49.5C 149.5,41.1667 149.5,32.8333 149.5,24.5 Z"/></g>
<g><path style="opacity:1" fill="#fefffe" d="M 99.5,74.5 C 116.167,74.5 132.833,74.5 149.5,74.5C 149.5,82.8333 149.5,91.1667 149.5,99.5C 157.833,99.5 166.167,99.5 174.5,99.5C 174.5,107.833 174.5,116.167 174.5,124.5C 141.167,124.5 107.833,124.5 74.5,124.5C 74.5,116.167 74.5,107.833 74.5,99.5C 82.8333,99.5 91.1667,99.5 99.5,99.5C 99.5,91.1667 99.5,82.8333 99.5,74.5 Z"/></g>
<g><path style="opacity:1" fill="#fefffe" d="M 24.5,149.5 C 32.8333,149.5 41.1667,149.5 49.5,149.5C 49.5,174.5 49.5,199.5 49.5,224.5C 41.1667,224.5 32.8333,224.5 24.5,224.5C 24.5,199.5 24.5,174.5 24.5,149.5 Z"/></g>
<g><path style="opacity:1" fill="#fefffe" d="M 74.5,149.5 C 107.833,149.5 141.167,149.5 174.5,149.5C 174.5,166.167 174.5,182.833 174.5,199.5C 141.167,199.5 107.833,199.5 74.5,199.5C 74.5,182.833 74.5,166.167 74.5,149.5 Z"/></g>
<g><path style="opacity:1" fill="#fefffe" d="M 224.5,149.5 C 224.5,174.5 224.5,199.5 224.5,224.5C 216.167,224.5 207.833,224.5 199.5,224.5C 199.5,199.5 199.5,174.5 199.5,149.5C 207.833,149.5 216.167,149.5 224.5,149.5 Z"/></g>
</svg>
