<?xml version="1.0" encoding="UTF-8"?>
<!DOCTYPE svg PUBLIC "-//W3C//DTD SVG 1.1//EN" "http://www.w3.org/Graphics/SVG/1.1/DTD/svg11.dtd">
<svg xmlns="http://www.w3.org/2000/svg" version="1.1" width="600px" height="400px" style="shape-rendering:geometricPrecision; text-rendering:geometricPrecision; image-rendering:optimizeQuality; fill-rule:evenodd; clip-rule:evenodd" xmlns:xlink="http://www.w3.org/1999/xlink">
<g><path style="opacity:0.812" fill="#000000" d="M 125.5,109.5 C 130.767,108.185 134.1,110.018 135.5,115C 132.864,121.117 129.03,121.95 124,117.5C 123.109,114.502 123.609,111.836 125.5,109.5 Z"/></g>
<g><path style="opacity:0.903" fill="#000000" d="M 184.5,109.5 C 187.833,109.5 191.167,109.5 194.5,109.5C 194.334,119.172 194.5,128.839 195,138.5C 198.5,134.333 202,130.167 205.5,126C 209.5,125.333 213.5,125.333 217.5,126C 213.311,130.688 209.311,135.521 205.5,140.5C 209.459,147.587 213.792,154.42 218.5,161C 214.5,161.667 210.5,161.667 206.5,161C 204.391,156.408 201.724,152.242 198.5,148.5C 197.186,149.313 196.019,150.313 195,151.5C 194.502,154.817 194.335,158.15 194.5,161.5C 191.167,161.5 187.833,161.5 184.5,161.5C 184.5,144.167 184.5,126.833 184.5,109.5 Z"/></g>
<g><path style="opacity:0.878" fill="#000000" d="M 354.5,109.5 C 358.167,109.5 361.833,109.5 365.5,109.5C 365.5,126.833 365.5,144.167 365.5,161.5C 361.889,161.956 358.556,161.289 355.5,159.5C 344.586,165.626 336.753,162.959 332,151.5C 329.971,142.342 331.805,134.176 337.5,127C 342.951,123.936 348.451,123.769 354,126.5C 354.499,120.843 354.666,115.176 354.5,109.5 Z M 347.5,132.5 C 353.44,133.231 355.774,136.731 354.5,143C 354.333,145.833 354.167,148.667 354,151.5C 350.545,155.413 347.045,155.413 343.5,151.5C 340.043,143.951 341.377,137.618 347.5,132.5 Z"/></g>
<g><path style="opacity:0.903" fill="#000000" d="M 426.5,115.5 C 429.5,115.5 432.5,115.5 435.5,115.5C 435.5,118.833 435.5,122.167 435.5,125.5C 438.5,125.5 441.5,125.5 444.5,125.5C 444.5,128.167 444.5,130.833 444.5,133.5C 441.5,133.5 438.5,133.5 435.5,133.5C 435.334,139.509 435.501,145.509 436,151.5C 437.876,154.428 440.376,155.094 443.5,153.5C 447.562,160.338 445.728,163.338 438,162.5C 433.028,163.494 429.361,161.827 427,157.5C 425.599,149.585 425.099,141.585 425.5,133.5C 423.833,133.5 422.167,133.5 420.5,133.5C 420.5,130.833 420.5,128.167 420.5,125.5C 422.467,125.739 424.301,125.406 426,124.5C 426.498,121.518 426.665,118.518 426.5,115.5 Z"/></g>
<g><path style="opacity:0.914" fill="#000000" d="M 97.5,124.5 C 110.703,123.029 117.37,129.029 117.5,142.5C 117.512,149.304 115.179,155.138 110.5,160C 105.049,163.064 99.5486,163.231 94,160.5C 93.5007,165.489 93.3341,170.489 93.5,175.5C 90.1667,175.5 86.8333,175.5 83.5,175.5C 83.5,158.833 83.5,142.167 83.5,125.5C 87.0071,124.994 90.1737,125.66 93,127.5C 94.6516,126.601 96.1516,125.601 97.5,124.5 Z M 98.5,132.5 C 104.604,133.225 107.27,136.725 106.5,143C 107.094,148.918 104.594,152.752 99,154.5C 97.4411,153.971 95.9411,153.304 94.5,152.5C 93.3368,146.863 93.1701,141.196 94,135.5C 95.6516,134.601 97.1516,133.601 98.5,132.5 Z"/></g>
<g><path style="opacity:0.899" fill="#000000" d="M 158.5,124.5 C 162.182,124.335 165.848,124.501 169.5,125C 171.378,126.543 172.878,128.376 174,130.5C 175.399,140.768 175.899,151.102 175.5,161.5C 171.833,161.5 168.167,161.5 164.5,161.5C 164.666,152.827 164.5,144.16 164,135.5C 160.466,132.799 157.133,133.133 154,136.5C 153.5,144.827 153.334,153.16 153.5,161.5C 150.167,161.5 146.833,161.5 143.5,161.5C 143.5,149.5 143.5,137.5 143.5,125.5C 146.187,125.336 148.854,125.503 151.5,126C 152.126,126.75 152.626,127.584 153,128.5C 154.812,127.023 156.645,125.69 158.5,124.5 Z"/></g>
<g><path style="opacity:0.873" fill="#000000" d="M 231.5,124.5 C 235.514,124.334 239.514,124.501 243.5,125C 249.667,127.104 250.001,130.104 244.5,134C 233.162,130.994 228.328,135.494 230,147.5C 233.137,154.993 237.971,156.326 244.5,151.5C 246.452,153.228 247.785,155.395 248.5,158C 248.18,159.653 247.18,160.653 245.5,161C 229.86,165.687 220.86,160.02 218.5,144C 218.521,134.418 222.855,127.918 231.5,124.5 Z"/></g>
<g><path style="opacity:0.876" fill="#000000" d="M 262.5,124.5 C 273.722,121.514 280.555,125.514 283,136.5C 283.5,144.827 283.666,153.16 283.5,161.5C 280.5,161.5 277.5,161.5 274.5,161.5C 274.649,160.448 274.483,159.448 274,158.5C 269.483,162.242 264.316,163.409 258.5,162C 256,160.833 254.167,159 253,156.5C 250.925,149.489 253.092,144.323 259.5,141C 263.347,139.384 267.347,138.384 271.5,138C 272.418,134.557 270.918,132.724 267,132.5C 263.866,133.1 260.866,134.1 258,135.5C 255.8,134.133 254.3,132.133 253.5,129.5C 256.261,127.26 259.261,125.593 262.5,124.5 Z M 267.5,145.5 C 269.167,145.5 270.833,145.5 272.5,145.5C 273.195,152.477 270.195,155.143 263.5,153.5C 262.369,151.926 262.202,150.259 263,148.5C 264.652,147.601 266.152,146.601 267.5,145.5 Z"/></g>
<g><path style="opacity:0.899" fill="#000000" d="M 307.5,124.5 C 311.182,124.335 314.848,124.501 318.5,125C 320.378,126.543 321.878,128.376 323,130.5C 324.399,140.768 324.899,151.102 324.5,161.5C 320.833,161.5 317.167,161.5 313.5,161.5C 313.666,152.827 313.5,144.16 313,135.5C 309.466,132.799 306.133,133.133 303,136.5C 302.5,144.827 302.334,153.16 302.5,161.5C 299.167,161.5 295.833,161.5 292.5,161.5C 292.5,149.5 292.5,137.5 292.5,125.5C 295.187,125.336 297.854,125.503 300.5,126C 301.126,126.75 301.626,127.584 302,128.5C 303.812,127.023 305.645,125.69 307.5,124.5 Z"/></g>
<g><path style="opacity:0.895" fill="#000000" d="M 459.5,124.5 C 478.378,123.885 485.878,132.885 482,151.5C 475.969,162.754 467.136,165.587 455.5,160C 447.241,151.608 445.741,142.108 451,131.5C 453.441,128.546 456.275,126.213 459.5,124.5 Z M 463.5,132.5 C 469.987,133.08 472.987,136.747 472.5,143.5C 472.897,149.066 470.563,152.732 465.5,154.5C 460.437,152.732 458.103,149.066 458.5,143.5C 458.32,138.868 459.986,135.202 463.5,132.5 Z"/></g>
<g><path style="opacity:0.914" fill="#000000" d="M 504.5,124.5 C 517.703,123.029 524.37,129.029 524.5,142.5C 524.512,149.304 522.179,155.138 517.5,160C 512.049,163.064 506.549,163.231 501,160.5C 500.501,165.489 500.334,170.489 500.5,175.5C 497.167,175.5 493.833,175.5 490.5,175.5C 490.5,158.833 490.5,142.167 490.5,125.5C 494.007,124.994 497.174,125.66 500,127.5C 501.652,126.601 503.152,125.601 504.5,124.5 Z M 505.5,132.5 C 511.604,133.225 514.27,136.725 513.5,143C 514.094,148.918 511.594,152.752 506,154.5C 504.441,153.971 502.941,153.304 501.5,152.5C 500.337,146.863 500.17,141.196 501,135.5C 502.652,134.601 504.152,133.601 505.5,132.5 Z"/></g>
<g><path style="opacity:0.94" fill="#000000" d="M 124.5,125.5 C 127.833,125.5 131.167,125.5 134.5,125.5C 134.5,137.5 134.5,149.5 134.5,161.5C 131.167,161.5 127.833,161.5 124.5,161.5C 124.5,149.5 124.5,137.5 124.5,125.5 Z"/></g>
<g><path style="opacity:0.875" fill="#000000" d="M 369.5,126.5 C 373.019,125.192 376.685,125.192 380.5,126.5C 383.445,134.173 386.278,141.839 389,149.5C 391.275,141.51 393.442,133.51 395.5,125.5C 398.833,125.5 402.167,125.5 405.5,125.5C 401.233,140.801 396.066,155.801 390,170.5C 385.477,176.008 379.644,178.008 372.5,176.5C 372.833,173.833 373.167,171.167 373.5,168.5C 379.02,169.316 382.353,166.983 383.5,161.5C 379.199,149.58 374.533,137.913 369.5,126.5 Z"/></g>
<g><path style="opacity:0.824" fill="#000000" d="M 411.5,149.5 C 419.461,151.248 421.128,155.414 416.5,162C 409.17,163.666 406.003,160.833 407,153.5C 407.907,151.391 409.407,150.058 411.5,149.5 Z"/></g>
<g><path style="opacity:0.825" fill="#000000" d="M 86.5,194.5 C 88.5,194.5 90.5,194.5 92.5,194.5C 92.335,197.85 92.5017,201.183 93,204.5C 93.2895,202.048 93.9562,199.715 95,197.5C 96.8254,198.103 98.6587,198.77 100.5,199.5C 98.7919,203.446 97.6252,207.446 97,211.5C 100.673,207.153 103.006,202.153 104,196.5C 105.956,196.216 108.123,196.216 110.5,196.5C 109.778,202.501 107.778,208.001 104.5,213C 108.833,213.667 113.167,213.667 117.5,213C 114.815,208.114 112.815,202.947 111.5,197.5C 113.108,196.682 114.775,196.015 116.5,195.5C 118.67,201.502 121.67,207.168 125.5,212.5C 124.333,214.167 123.167,215.833 122,217.5C 121.667,222.5 121.333,227.5 121,232.5C 120.692,239.744 116.859,242.744 109.5,241.5C 109.007,239.194 108.674,236.861 108.5,234.5C 110.467,234.739 112.301,234.406 114,233.5C 114.435,228.816 114.935,224.149 115.5,219.5C 113.833,219.5 112.167,219.5 110.5,219.5C 110.908,228.811 107.408,236.145 100,241.5C 98.5,240 97,238.5 95.5,237C 101.248,232.598 104.248,226.764 104.5,219.5C 100.623,218.063 96.6227,217.563 92.5,218C 95.0168,220.349 97.3501,222.849 99.5,225.5C 98.5589,227.772 97.2255,229.772 95.5,231.5C 94.4164,230.335 93.5831,229.002 93,227.5C 92.5008,232.155 92.3342,236.821 92.5,241.5C 90.5,241.5 88.5,241.5 86.5,241.5C 86.6653,237.818 86.4986,234.152 86,230.5C 83.2721,238.141 81.1054,238.141 79.5,230.5C 81.0965,226.14 83.0965,221.974 85.5,218C 83.5273,217.505 81.5273,217.338 79.5,217.5C 79.5382,214.379 80.2048,211.379 81.5,208.5C 81.1457,205.749 80.479,203.083 79.5,200.5C 80.6927,198.616 82.3594,198.116 84.5,199C 85.2266,200.399 85.7266,201.899 86,203.5C 86.498,200.518 86.6646,197.518 86.5,194.5 Z"/></g>
<g><path style="opacity:0.855" fill="#000000" d="M 158.5,194.5 C 161.321,194.316 162.988,195.649 163.5,198.5C 166.428,199.484 169.428,199.817 172.5,199.5C 172.5,201.167 172.5,202.833 172.5,204.5C 165.5,204.5 158.5,204.5 151.5,204.5C 151.5,205.5 151.5,206.5 151.5,207.5C 154.621,207.462 157.621,206.795 160.5,205.5C 164.032,206.967 167.698,207.634 171.5,207.5C 171.439,210.488 172.105,213.321 173.5,216C 172.105,218.679 171.439,221.512 171.5,224.5C 160.833,225.167 160.833,225.833 171.5,226.5C 171.5,231.5 171.5,236.5 171.5,241.5C 167.99,241.332 164.49,240.999 161,240.5C 157.841,241.48 154.674,241.98 151.5,242C 150.703,238.255 150.203,234.421 150,230.5C 149.33,234.011 148.163,237.344 146.5,240.5C 144.114,241.529 142.114,240.863 140.5,238.5C 142.605,234.693 143.772,230.693 144,226.5C 143.092,228.439 141.592,229.439 139.5,229.5C 139.5,233.833 139.5,238.167 139.5,242.5C 137.5,242.5 135.5,242.5 133.5,242.5C 133.665,238.818 133.499,235.152 133,231.5C 130.363,237.963 128.529,237.463 127.5,230C 129.324,226.026 130.658,221.859 131.5,217.5C 130.167,217.5 128.833,217.5 127.5,217.5C 127.5,215.5 127.5,213.5 127.5,211.5C 129.527,211.662 131.527,211.495 133.5,211C 131.899,210.727 130.399,210.227 129,209.5C 128.452,205.83 127.952,202.163 127.5,198.5C 129.167,198.5 130.833,198.5 132.5,198.5C 132.343,199.873 132.51,201.207 133,202.5C 133.497,200.19 133.663,197.857 133.5,195.5C 135.5,195.5 137.5,195.5 139.5,195.5C 139.343,196.873 139.51,198.207 140,199.5C 140.308,198.692 140.808,198.025 141.5,197.5C 146.043,199.554 150.71,199.888 155.5,198.5C 155.167,197.833 154.833,197.167 154.5,196.5C 155.949,195.828 157.282,195.161 158.5,194.5 Z M 144.5,202.5 C 145.855,209.389 145.688,216.389 144,223.5C 142.859,221.391 141.359,219.558 139.5,218C 141.134,217.506 142.801,217.34 144.5,217.5C 144.5,215.5 144.5,213.5 144.5,211.5C 142.801,211.66 141.134,211.494 139.5,211C 142.913,209.321 144.58,206.487 144.5,202.5 Z M 151.5,211.5 C 153.604,211.201 155.604,211.534 157.5,212.5C 156.5,212.833 155.5,213.167 154.5,213.5C 152.97,213.36 151.97,212.693 151.5,211.5 Z M 163.5,211.5 C 165.337,211.639 165.67,212.306 164.5,213.5C 163.702,213.043 163.369,212.376 163.5,211.5 Z M 151.5,217.5 C 153.5,217.5 155.5,217.5 157.5,217.5C 157.5,218.5 157.5,219.5 157.5,220.5C 155.5,220.5 153.5,220.5 151.5,220.5C 151.5,221.833 151.5,223.167 151.5,224.5C 153.604,224.201 155.604,224.534 157.5,225.5C 155.257,226.474 152.924,226.808 150.5,226.5C 150.368,223.43 150.701,220.43 151.5,217.5 Z M 163.5,217.5 C 165.465,217.948 165.798,218.948 164.5,220.5C 163.614,219.675 163.281,218.675 163.5,217.5 Z M 156.5,231.5 C 159.5,231.5 162.5,231.5 165.5,231.5C 165.5,232.833 165.5,234.167 165.5,235.5C 162.5,235.5 159.5,235.5 156.5,235.5C 156.5,234.167 156.5,232.833 156.5,231.5 Z"/></g>
<g><path style="opacity:0.829" fill="#000000" d="M 206.5,194.5 C 207.496,194.414 208.329,194.748 209,195.5C 209.642,197.762 210.475,199.929 211.5,202C 210.833,202.333 210.167,202.667 209.5,203C 213.152,203.499 216.818,203.665 220.5,203.5C 220.5,205.5 220.5,207.5 220.5,209.5C 211.833,209.5 203.167,209.5 194.5,209.5C 194.66,207.801 194.494,206.134 194,204.5C 193.358,206.762 192.525,208.929 191.5,211C 192.448,211.483 193.448,211.649 194.5,211.5C 194.5,213.5 194.5,215.5 194.5,217.5C 192.473,217.338 190.473,217.505 188.5,218C 190.729,220.719 192.729,223.553 194.5,226.5C 193.952,228.556 192.786,230.223 191,231.5C 190.085,230.672 189.419,229.672 189,228.5C 188.501,232.821 188.334,237.154 188.5,241.5C 186.5,241.5 184.5,241.5 182.5,241.5C 182.666,237.486 182.499,233.486 182,229.5C 179.469,238.145 177.303,238.312 175.5,230C 177.576,226.013 179.242,221.846 180.5,217.5C 178.833,217.5 177.167,217.5 175.5,217.5C 175.639,214.243 176.306,211.076 177.5,208C 177.297,205.189 176.631,202.522 175.5,200C 179.237,197.787 181.404,198.954 182,203.5C 182.497,200.854 182.664,198.187 182.5,195.5C 184.5,195.5 186.5,195.5 188.5,195.5C 188.337,197.857 188.503,200.19 189,202.5C 189.202,200.744 189.702,199.078 190.5,197.5C 192.071,198.309 193.738,198.643 195.5,198.5C 195.579,199.93 195.246,201.264 194.5,202.5C 197.833,203.833 201.167,203.833 204.5,202.5C 203.423,200.271 202.756,197.937 202.5,195.5C 204.099,195.768 205.432,195.434 206.5,194.5 Z"/></g>
<g><path style="opacity:0.903" fill="#000000" d="M 259.5,197.5 C 261.824,198.33 263.824,199.663 265.5,201.5C 261.625,205.539 257.292,209.039 252.5,212C 250.963,213.11 250.297,214.61 250.5,216.5C 256.5,216.5 262.5,216.5 268.5,216.5C 268.5,218.5 268.5,220.5 268.5,222.5C 262.5,222.5 256.5,222.5 250.5,222.5C 250.904,228.29 250.404,233.956 249,239.5C 248.25,240.126 247.416,240.626 246.5,241C 242.848,241.499 239.182,241.665 235.5,241.5C 235.528,239.418 234.861,237.584 233.5,236C 236.758,235.788 239.924,235.288 243,234.5C 243.499,230.514 243.666,226.514 243.5,222.5C 237.167,222.5 230.833,222.5 224.5,222.5C 224.5,220.5 224.5,218.5 224.5,216.5C 230.833,216.5 237.167,216.5 243.5,216.5C 243.337,214.143 243.503,211.81 244,209.5C 246.167,208 248.333,206.5 250.5,205C 243.174,204.5 235.841,204.334 228.5,204.5C 228.5,202.5 228.5,200.5 228.5,198.5C 239.014,198.828 249.347,198.494 259.5,197.5 Z"/></g>
<g><path style="opacity:0.803" fill="#000000" d="M 448.5,209.5 C 458.155,210.308 461.655,215.308 459,224.5C 453.333,231.167 447.667,231.167 442,224.5C 439.427,217.371 441.594,212.371 448.5,209.5 Z"/></g>
<g><path style="opacity:0.839" fill="#000000" d="M 200.5,210.5 C 201.931,210.881 202.764,211.881 203,213.5C 204.295,218.977 205.462,224.477 206.5,230C 205.318,231.735 203.651,232.735 201.5,233C 203.769,233.758 205.936,233.591 208,232.5C 209.68,225.24 210.847,217.906 211.5,210.5C 214.059,210.39 216.392,211.056 218.5,212.5C 216.91,219.449 215.577,226.449 214.5,233.5C 216.833,233.5 219.167,233.5 221.5,233.5C 221.5,235.5 221.5,237.5 221.5,239.5C 211.833,239.5 202.167,239.5 192.5,239.5C 192.5,237.5 192.5,235.5 192.5,233.5C 194.833,233.5 197.167,233.5 199.5,233.5C 199.151,226.073 198.151,218.74 196.5,211.5C 198.099,211.768 199.432,211.434 200.5,210.5 Z"/></g>
<g><path style="opacity:0.803" fill="#000000" d="M 423.5,217.5 C 433.155,218.308 436.655,223.308 434,232.5C 428.333,239.167 422.667,239.167 417,232.5C 414.427,225.371 416.594,220.371 423.5,217.5 Z"/></g>
<g><path style="opacity:0.861" fill="#000000" d="M 469.5,220.5 C 478.631,221.788 481.798,226.788 479,235.5C 473.667,242.167 468.333,242.167 463,235.5C 460.427,228.371 462.594,223.371 469.5,220.5 Z"/></g>
<g><path style="opacity:0.803" fill="#000000" d="M 375.5,230.5 C 385.155,231.308 388.655,236.308 386,245.5C 380.333,252.167 374.667,252.167 369,245.5C 366.427,238.371 368.594,233.371 375.5,230.5 Z"/></g>
<g><path style="opacity:0.882" fill="#000000" d="M 447.5,231.5 C 459.45,232.643 466.117,239.309 467.5,251.5C 464.277,263.98 456.944,267.147 445.5,261C 443.134,260.438 440.801,260.604 438.5,261.5C 426.02,258.277 422.853,250.944 429,239.5C 434.704,235.551 440.871,232.884 447.5,231.5 Z"/></g>
<g><path style="opacity:0.803" fill="#000000" d="M 350.5,238.5 C 360.155,239.308 363.655,244.308 361,253.5C 355.333,260.167 349.667,260.167 344,253.5C 341.427,246.371 343.594,241.371 350.5,238.5 Z"/></g>
<g><path style="opacity:0.861" fill="#000000" d="M 396.5,241.5 C 405.631,242.788 408.798,247.788 406,256.5C 400.667,263.167 395.333,263.167 390,256.5C 387.427,249.371 389.594,244.371 396.5,241.5 Z"/></g>
<g><path style="opacity:0.861" fill="#000000" d="M 477.5,241.5 C 486.631,242.788 489.798,247.788 487,256.5C 481.667,263.167 476.333,263.167 471,256.5C 468.427,249.371 470.594,244.371 477.5,241.5 Z"/></g>
<g><path style="opacity:0.882" fill="#000000" d="M 374.5,252.5 C 386.45,253.643 393.117,260.309 394.5,272.5C 391.277,284.98 383.944,288.147 372.5,282C 370.134,281.438 367.801,281.604 365.5,282.5C 353.02,279.277 349.853,271.944 356,260.5C 361.704,256.551 367.871,253.884 374.5,252.5 Z"/></g>
<g><path style="opacity:0.781" fill="#000000" d="M 87.5,260.5 C 89.6449,260.738 91.3115,261.738 92.5,263.5C 90.8333,266.833 89.1667,270.167 87.5,273.5C 87.9377,274.506 88.6043,274.506 89.5,273.5C 90.7821,269.329 92.9488,268.662 96,271.5C 95.8688,274.951 94.7021,278.118 92.5,281C 95.9931,283.12 98.1598,286.287 99,290.5C 100.667,289.167 102.333,289.167 104,290.5C 104.667,289.833 105.333,289.167 106,288.5C 106.897,282.194 107.397,275.861 107.5,269.5C 103.5,269.5 99.5,269.5 95.5,269.5C 95.5,267.833 95.5,266.167 95.5,264.5C 101.167,264.5 106.833,264.5 112.5,264.5C 112.807,273.552 112.307,282.552 111,291.5C 110.5,293.333 109.333,294.5 107.5,295C 105.19,295.497 102.857,295.663 100.5,295.5C 100.649,294.448 100.483,293.448 100,292.5C 96.421,296.129 94.5877,295.796 94.5,291.5C 90.3888,291.522 86.3888,292.189 82.5,293.5C 81.0256,292.564 80.0256,291.23 79.5,289.5C 82.2154,286.786 84.5488,283.786 86.5,280.5C 84.5,279.833 82.5,279.167 80.5,278.5C 80.0688,277.707 79.7355,276.873 79.5,276C 82.8253,271.183 85.492,266.016 87.5,260.5 Z M 89.5,284.5 C 91.337,284.639 91.6704,285.306 90.5,286.5C 89.7025,286.043 89.3691,285.376 89.5,284.5 Z"/></g>
<g><path style="opacity:0.796" fill="#000000" d="M 121.5,260.5 C 123.167,260.5 124.833,260.5 126.5,260.5C 126.5,262.5 126.5,264.5 126.5,266.5C 128.167,266.5 129.833,266.5 131.5,266.5C 131.5,267.833 131.5,269.167 131.5,270.5C 129.801,270.34 128.134,270.506 126.5,271C 128.305,271.972 129.972,273.139 131.5,274.5C 132.491,270.555 132.824,266.555 132.5,262.5C 137.5,262.5 142.5,262.5 147.5,262.5C 147.799,269.891 147.465,277.224 146.5,284.5C 147.635,286.799 148.968,288.966 150.5,291C 147.072,294.823 144.572,294.323 143,289.5C 142.55,291.519 141.717,293.352 140.5,295C 135.5,295.667 130.5,295.667 125.5,295C 123.845,292.493 123.011,289.659 123,286.5C 122.311,289.408 121.145,292.075 119.5,294.5C 118.264,293.754 116.93,293.421 115.5,293.5C 115.998,290.171 116.998,287.005 118.5,284C 120.163,283.735 121.663,284.235 123,285.5C 126.275,285.081 129.109,283.747 131.5,281.5C 132.631,279.926 132.798,278.259 132,276.5C 130.857,279.915 129.19,280.249 127,277.5C 126.505,279.473 126.338,281.473 126.5,283.5C 124.833,283.5 123.167,283.5 121.5,283.5C 121.657,282.127 121.49,280.793 121,279.5C 118.426,282.259 116.26,281.926 114.5,278.5C 116.69,276.144 118.69,273.644 120.5,271C 118.866,270.506 117.199,270.34 115.5,270.5C 115.5,269.167 115.5,267.833 115.5,266.5C 117.5,266.5 119.5,266.5 121.5,266.5C 121.5,264.5 121.5,262.5 121.5,260.5 Z M 137.5,266.5 C 139.288,266.215 140.955,266.548 142.5,267.5C 141.667,267.833 140.833,268.167 140,268.5C 138.624,268.316 137.791,267.649 137.5,266.5 Z M 137.5,277.5 C 139.288,277.215 140.955,277.548 142.5,278.5C 141.667,278.833 140.833,279.167 140,279.5C 138.624,279.316 137.791,278.649 137.5,277.5 Z M 135.5,284.5 C 137.628,283.371 139.961,283.204 142.5,284C 140.726,284.881 140.06,286.047 140.5,287.5C 138.64,286.74 136.973,285.74 135.5,284.5 Z M 128.5,285.5 C 130.463,286.96 132.296,288.627 134,290.5C 135,289.5 136,288.5 137,287.5C 137.667,288.5 137.667,289.5 137,290.5C 131.554,292.929 128.72,291.262 128.5,285.5 Z"/></g>
<g><path style="opacity:0.775" fill="#000000" d="M 193.5,260.5 C 195.167,260.5 196.833,260.5 198.5,260.5C 198.5,262.833 198.5,265.167 198.5,267.5C 199.822,267.33 200.989,267.663 202,268.5C 202.745,265.455 204.078,262.789 206,260.5C 207.395,260.78 208.562,261.447 209.5,262.5C 208.754,263.736 208.421,265.07 208.5,266.5C 212.833,266.5 217.167,266.5 221.5,266.5C 221.911,276.017 220.911,285.35 218.5,294.5C 214.403,297.815 211.403,297.148 209.5,292.5C 208.167,293.5 206.833,294.5 205.5,295.5C 204.167,294.5 202.833,293.5 201.5,292.5C 203.856,289.978 206.023,287.312 208,284.5C 208.667,283.5 208.667,282.5 208,281.5C 206.784,283.968 205.117,285.968 203,287.5C 201.013,286.846 199.68,285.513 199,283.5C 198.501,287.821 198.334,292.154 198.5,296.5C 196.833,296.5 195.167,296.5 193.5,296.5C 193.666,292.486 193.499,288.486 193,284.5C 188.511,287.543 186.678,286.209 187.5,280.5C 189.5,280.167 191.5,279.833 193.5,279.5C 193.808,277.076 193.474,274.743 192.5,272.5C 191.709,278.026 189.709,278.692 186.5,274.5C 187.811,270.611 188.478,266.611 188.5,262.5C 189.93,262.421 191.264,262.754 192.5,263.5C 193.386,262.675 193.719,261.675 193.5,260.5 Z M 205.5,274.5 C 204.955,276.593 204.122,278.593 203,280.5C 202.308,279.975 201.808,279.308 201.5,278.5C 202.849,277.091 204.182,275.757 205.5,274.5 Z M 198.5,275.5 C 199.289,275.783 199.956,276.283 200.5,277C 199.184,277.528 198.517,277.028 198.5,275.5 Z M 215.5,280.5 C 215.74,283.579 215.407,286.579 214.5,289.5C 213.277,290.614 211.944,290.781 210.5,290C 212.277,286.791 213.943,283.624 215.5,280.5 Z"/></g>
<g><path style="opacity:0.787" fill="#000000" d="M 276.5,260.5 C 278.716,260.275 280.383,261.108 281.5,263C 285.486,263.499 289.486,263.666 293.5,263.5C 293.5,264.833 293.5,266.167 293.5,267.5C 287.491,267.334 281.491,267.501 275.5,268C 276.595,269.675 278.095,270.842 280,271.5C 283.077,269.885 286.41,268.885 290,268.5C 291.255,269.211 292.421,270.044 293.5,271C 291.024,274.696 290.524,278.529 292,282.5C 292.667,285.167 292.667,287.833 292,290.5C 289.959,291.423 287.792,291.756 285.5,291.5C 285.5,293.167 285.5,294.833 285.5,296.5C 281.787,296.392 278.62,295.058 276,292.5C 273.428,293.692 270.761,294.692 268,295.5C 266.118,294.907 265.118,293.573 265,291.5C 264.18,297.188 262.014,297.855 258.5,293.5C 259.775,290.627 260.608,287.627 261,284.5C 261.5,277.508 261.666,270.508 261.5,263.5C 266.214,263.827 270.88,263.493 275.5,262.5C 275.863,261.817 276.196,261.15 276.5,260.5 Z M 266.5,267.5 C 268.199,267.34 269.866,267.506 271.5,268C 270.167,268.667 270.167,269.333 271.5,270C 269.899,270.273 268.399,270.773 267,271.5C 266.51,270.207 266.343,268.873 266.5,267.5 Z M 285.5,273.5 C 286.239,273.369 286.906,273.536 287.5,274C 286.119,280.02 285.453,279.853 285.5,273.5 Z M 271.5,274.5 C 272.978,274.238 274.311,274.571 275.5,275.5C 274.833,275.833 274.167,276.167 273.5,276.5C 272.287,276.253 271.62,275.586 271.5,274.5 Z M 285.5,280.5 C 286.725,281.937 287.725,283.604 288.5,285.5C 288.167,286.5 287.5,287.167 286.5,287.5C 285.526,285.257 285.192,282.924 285.5,280.5 Z M 271.5,284.5 C 272.873,284.343 274.207,284.51 275.5,285C 273.981,286.218 272.814,287.718 272,289.5C 271.506,287.866 271.34,286.199 271.5,284.5 Z M 277.5,285.5 C 278.209,284.596 279.209,284.263 280.5,284.5C 280.66,286.199 280.494,287.866 280,289.5C 279.392,287.934 278.558,286.6 277.5,285.5 Z"/></g>
<g><path style="opacity:0.796" fill="#000000" d="M 172.5,261.5 C 174.167,261.5 175.833,261.5 177.5,261.5C 177.5,263.833 177.5,266.167 177.5,268.5C 180.167,268.5 182.833,268.5 185.5,268.5C 185.179,276.174 184.679,283.841 184,291.5C 183.691,292.766 183.191,293.933 182.5,295C 178.254,297.802 175.087,296.969 173,292.5C 172.363,294.303 171.197,295.636 169.5,296.5C 167.703,294.869 166.536,292.869 166,290.5C 161.859,289.694 157.859,290.36 154,292.5C 151.102,289.692 151.102,287.025 154,284.5C 154.822,281.883 155.322,279.216 155.5,276.5C 154.167,276.5 152.833,276.5 151.5,276.5C 151.5,275.167 151.5,273.833 151.5,272.5C 157.167,272.5 162.833,272.5 168.5,272.5C 168.5,271.167 168.5,269.833 168.5,268.5C 169.833,268.5 171.167,268.5 172.5,268.5C 172.5,266.167 172.5,263.833 172.5,261.5 Z M 168.5,273.5 C 169.5,273.5 170.5,273.5 171.5,273.5C 171.811,277.68 171.145,281.68 169.5,285.5C 168.529,282.879 167.196,280.546 165.5,278.5C 162.677,279.385 162.01,281.052 163.5,283.5C 162.372,284.262 161.205,284.929 160,285.5C 160.158,282.498 160.658,279.498 161.5,276.5C 163.833,276.5 166.167,276.5 168.5,276.5C 168.5,275.5 168.5,274.5 168.5,273.5 Z M 177.5,273.5 C 178.812,275.743 179.478,278.41 179.5,281.5C 179.333,284.167 179.167,286.833 179,289.5C 177.644,290.38 176.144,290.714 174.5,290.5C 175.778,284.885 176.778,279.218 177.5,273.5 Z"/></g>
<g><path style="opacity:0.794" fill="#000000" d="M 224.5,262.5 C 235.167,262.5 245.833,262.5 256.5,262.5C 256.5,264.167 256.5,265.833 256.5,267.5C 245.833,267.5 235.167,267.5 224.5,267.5C 224.5,265.833 224.5,264.167 224.5,262.5 Z"/></g>
<g><path style="opacity:0.861" fill="#000000" d="M 404.5,262.5 C 413.631,263.788 416.798,268.788 414,277.5C 408.667,284.167 403.333,284.167 398,277.5C 395.427,270.371 397.594,265.371 404.5,262.5 Z"/></g>
<g><path style="opacity:0.831" fill="#000000" d="M 152.5,263.5 C 157.833,263.5 163.167,263.5 168.5,263.5C 168.5,264.833 168.5,266.167 168.5,267.5C 163.167,267.5 157.833,267.5 152.5,267.5C 152.5,266.167 152.5,264.833 152.5,263.5 Z"/></g>
<g><path style="opacity:0.89" fill="#000000" d="M 231.5,270.5 C 237.5,270.5 243.5,270.5 249.5,270.5C 249.5,276.167 249.5,281.833 249.5,287.5C 243.5,287.5 237.5,287.5 231.5,287.5C 231.5,281.833 231.5,276.167 231.5,270.5 Z M 235.5,274.5 C 236.675,274.281 237.675,274.614 238.5,275.5C 236.948,276.798 235.948,276.465 235.5,274.5 Z M 242.5,274.5 C 244.337,274.639 244.67,275.306 243.5,276.5C 242.702,276.043 242.369,275.376 242.5,274.5 Z M 235.5,280.5 C 236.5,280.5 237.5,280.5 238.5,280.5C 238.5,281.5 238.5,282.5 238.5,283.5C 237.5,283.5 236.5,283.5 235.5,283.5C 235.5,282.5 235.5,281.5 235.5,280.5 Z M 242.5,280.5 C 244.465,280.948 244.798,281.948 243.5,283.5C 242.614,282.675 242.281,281.675 242.5,280.5 Z"/></g>
<g><path style="opacity:0.758" fill="#000000" d="M 224.5,272.5 C 226.5,272.5 228.5,272.5 230.5,272.5C 230.5,278.167 230.5,283.833 230.5,289.5C 237.167,289.5 243.833,289.5 250.5,289.5C 250.5,283.833 250.5,278.167 250.5,272.5C 252.5,272.5 254.5,272.5 256.5,272.5C 256.5,280.5 256.5,288.5 256.5,296.5C 245.926,294.815 235.259,294.149 224.5,294.5C 224.5,287.167 224.5,279.833 224.5,272.5 Z M 235.5,274.5 C 235.948,276.465 236.948,276.798 238.5,275.5C 237.675,274.614 236.675,274.281 235.5,274.5 Z M 242.5,274.5 C 242.369,275.376 242.702,276.043 243.5,276.5C 244.67,275.306 244.337,274.639 242.5,274.5 Z M 235.5,280.5 C 235.5,281.5 235.5,282.5 235.5,283.5C 236.5,283.5 237.5,283.5 238.5,283.5C 238.5,282.5 238.5,281.5 238.5,280.5C 237.5,280.5 236.5,280.5 235.5,280.5 Z M 242.5,280.5 C 242.281,281.675 242.614,282.675 243.5,283.5C 244.798,281.948 244.465,280.948 242.5,280.5 Z"/></g>
</svg>
